<?xml version="1.0" encoding="UTF-8"?>
<!-- Created with Inkscape (http://www.inkscape.org/) -->
<svg width="210mm" height="297mm" version="1.1" viewBox="0 0 210 297" xmlns="http://www.w3.org/2000/svg">
 <g stroke-width=".26458">
  <path d="m83.965 209.54-0.37042 0.13229-0.13229-0.0794-0.42333-0.58208-0.23812-0.15875-0.55562-0.15875-0.26458-0.15875-0.66146-1.1642-0.47625-0.52916-0.635-0.23813-0.635-0.0794-0.52917-0.21167-0.37042-0.37042-0.23812-0.5027v-0.97896l0.58208-0.58209 1.0054-0.26458h3.0692l1.0583 0.23813 0.3175 0.13229 0.13229 0.18521 0.18521 0.58208 0.15875 0.37042 0.21167 0.37041 0.50271 0.635-0.02646 0.39688-0.44979 2.0108-0.29104 0.3175-0.44979 0.39688zm-8.6254-6.1648-0.82021 0.76729-0.44979-0.52917-0.23812-0.50271-0.10583-0.52916 0.02646-0.58209-0.15875-0.39687-0.02646-0.15875 0.07937-0.15875 0.21167-0.0794 0.10583-0.13229 0.15875-0.58208 0.15875-0.23813 0.23812-0.18521v0.39688l0.44979 0.87312 0.39688 1.0583zm-4.2069-3.6512-0.13229 0.10583-0.42333-0.0529-0.18521 0.13229v0.23813l0.18521 1.561-0.15875 0.92604-0.635 1.905-0.21167 2.0638-0.50271 1.9844-0.82021 2.0108-0.21167 0.3175-0.18521 0.50271 0.3175 0.37042 0.37042 0.34395-0.02646 0.42334-0.37042-0.39688-0.15875 0.23813-0.50271 0.44979-0.10583 0.18521v1.4552h-0.18521l-0.58208-0.68792-0.13229-0.39688 0.15875-0.44979-0.71438-0.0794-0.18521-0.44979 0.13229-1.4023 0.26458 0.66146 0.37042 0.13229 0.34396-0.3175 0.15875-0.58208-0.07937-0.34396-0.23812-0.13229-0.29104-0.0794-0.3175-0.10584-1.1377-1.1377-0.23812-0.1852 0.07937-1.0319 0.29104-1.1377 0.34396-0.52916 0.84667-0.34396 0.42333-0.84667 0.10583-1.0319 0.02646-0.9525-0.21167-1.6404 0.13229-0.60854 0.635-0.52917 1.5875-0.42333 0.76729-0.42334 0.29104-0.66145 0.82021 0.23812 0.29104 0.26458zm-12.462-8.9165 0.50271 0.0794 0.18521 0.21167 0.18521 0.3175-0.07937 0.26458-0.13229 0.13229-0.18521 0.0794 0.13229 0.21167-0.13229 0.10583h-0.18521l-0.10583-0.13229-0.21167-0.0265-0.21167-0.23813-0.18521-0.15875-0.05292-0.13229-0.02646-0.3175 0.18521-0.3175z" name="Romblon"/>
  <path d="m127.22 184.4-0.3175 0.13229-0.9525-0.21166-0.37042-0.1323-0.34396-0.0794h-0.60854l-0.44979-0.10583-0.76729-0.3175-0.10584-0.18521 0.52917-0.18521 0.79375-0.29104 0.26458-0.15875 0.42334-0.0265 1.0848 0.3175 0.52916 0.26458 0.3175 0.47625zm-6.7204-3.0692 0.66146 0.3175 0.42333-0.13229 0.39688 0.0265 0.23812 0.29104 0.18521 0.0794 0.15875-0.0794 0.0265-0.23812 0.23812-0.0265 0.58209 0.15875 0.42333 0.15875 0.0265 0.21167-0.50271 0.23812-0.13229 0.18521-0.15875 0.26458-0.29104 0.26459-0.55563 0.13229-0.76729-0.18521-0.58208-0.21167-0.50271-0.0265-0.50271-0.21166-0.47625-0.39688-0.23813-0.37041 0.0265-0.23813-0.0529-0.23812 0.0529-0.0265zm-2.1431 1.614-0.29104 0.0265-0.26458-0.44979-0.18521-0.13229-0.3175-0.58209-0.0265-0.3175 0.13229-0.47625 0.0529-0.52916-0.10583-0.37042-0.29104-0.39687 0.0794-0.10584 0.23813-0.15875 0.29104 0.0265 1.1112 0.37042 0.15875 0.13229 0.44979 0.15875v0.29104l-0.74083 0.74083-0.1323 0.52917 0.18521 0.44979 0.18521 0.34396-0.0529 0.21167zm-1.7462-4.2069 0.18521 0.18521 0.42334 0.0529 0.0794 0.10584-0.29104 0.34395-0.3175 0.10584-0.60854-0.39688-0.71438-0.71437-0.0794-0.34396 0.42333 0.13229 0.44979 0.21167zm3.1486 7.329-0.3175 0.635-0.15875 0.68791-0.29105 0.50271-0.66145 0.18521-0.9525 0.10583-1.6404 0.34396-0.9525-0.0794-0.9525-0.23813-0.84667-0.10583-0.84666 0.0529-2.8575 0.74084-0.87313 0.44979-0.635 0.74083-0.0265 0.0265-0.21166-0.3175-0.55563-0.29104-0.47625-0.92604-0.26458-0.21167-0.60854-0.0794-0.4498-0.10584-0.47625-0.0265-0.60854 0.21167-0.87312 0.50271-0.55563 0.18521-0.26458-0.21167-0.13229-0.44979-0.21167-0.52917-0.10583-0.47625 0.26458-0.37041-0.39687-0.97896 0.71437-2.2225-0.13229-1.0319-0.21167-0.23812 0.21167-0.15875 3.9952-3.5983h0.23812l0.23813 0.21167 0.50271 0.15875 0.15875-0.0794 0.1852-0.29105 0.10584-0.0794 1.1377 0.3175 0.34395 0.10583h0.3175l0.37042-0.34396 0.3175-0.55562 0.13229-0.66146-0.0794-0.68792-0.21167-0.60854-0.26458-0.29104-0.37042-0.18521-0.29104-0.23812-0.15875-0.34396 0.18521-0.42333 0.39687-0.21167 0.50271-0.0529h0.26458l0.3175 0.37042 1.6933 0.87312 0.34396 0.42334 0.68791 1.2171 0.47625 0.34396 0.0794 0.13229 0.0265 0.52917 0.13229 0.79375 0.3175 0.635 0.44979 0.47625 0.47625 0.15875 0.47625 0.26458 0.3175 0.60854 0.42333 1.2171 0.10584-0.47625 0.29104 0.10583 0.34396 0.42333 0.1852 0.37042-1.7992-0.10583-0.60854 0.21166-0.21167 0.74084-0.0794 0.47625-0.13229 0.37041-0.0529 0.37042 0.0794 0.42333 0.47625 0.82021-0.0529 0.34396-0.60854 0.15875v0.21167l0.10584 0.21166v0.13229l-0.10584 0.23813 0.58209 0.29104 0.21166 0.0794h0.34396l0.26458-0.10584 0.42334-0.37041 0.15875-0.0794 1.0054-1.3494 0.26459-0.50271 0.15875-0.15875 0.34396-0.10584 0.29104 0.0794 0.3175 0.39687 0.23812 0.10584h0.26459l0.21166 0.0794z" name="Albay"/>
  <path d="m95.528 166.31-0.18521-0.15875-0.3175-0.42333-0.50271-0.97896-0.39687-0.50271-1.3758-1.2171-0.42333-0.55563-0.21167-0.18521-0.42333-0.15875-2.54-0.635-9.181-4.445-0.55562-0.0794-0.635 0.15875-0.42333 0.26458-0.42333 0.34396-0.76729 0.74083-0.52917 0.34396-0.76729 0.29104-0.55562-0.0529 0.02646-0.47625 0.23812-0.10584 0.44979-0.37041 0.29104-0.50271 0.05292-0.635-0.10583-0.18521-0.37042-0.55562-0.07937-0.23813 0.10583-0.3175 0.15875-0.21167h0.18521l0.10583 0.34396h0.21167l0.02646-0.26458-0.02646-0.21167-0.07937-0.15875-0.13229-0.13229h0.52917l0.26458-0.18521v-0.29104l-0.3175-0.39687 0.02646-0.23813 0.42333-0.89958 0.18521-0.3175 0.15875 0.37041 0.26458-0.10583 0.23812-0.37042 0.10583-0.44979 0.39688 0.18521 0.37042-0.18521 0.34396-0.34396 0.37042-0.26458h0.34396l0.3175 0.13229 0.55562 0.3175-0.29104-0.44979 0.635-0.0794 1.2965 0.55562 0.71438 0.13229-0.07937 0.37042 0.15875 0.29104 0.26458 0.0529 0.21167-0.34396 0.10583 0.42333 0.23812 0.29104 0.26458 0.0529 0.15875-0.37042 0.76729 0.0794 0.34396 0.10583-0.44979-0.71437-0.07937-0.66146 0.23812-0.3175 0.47625 0.34396 0.18521-0.21167 0.21167 0.47625 0.26458 0.37042 0.37042 0.0794 0.47625-0.52916 0.26458 0.29104 0.18521 0.0794 0.42333 0.0529v0.21167l0.05292 0.13229 0.44979 0.50271 0.18521 0.0794h0.42333l0.7673 0.15875 0.55562 0.37042 0.82021 1.0319 0.0265 0.13229-0.0529 0.37042 0.10583 0.0794h0.37042l0.29104 0.1852 0.635 0.9525 0.3175 0.23813 1.0054 1.1377 0.26458 0.37041 0.26458-0.15875 0.29105 0.10584 0.26458 0.26458 0.13229 0.37042-0.0794 0.44979-0.21167 0.34396-0.15875 0.39687 0.0794 0.55563 0.55563 0.58208 0.66146 0.39688h0.10583l0.0794 0.39687-0.0794 1.2965 0.18521 0.76729-0.0265 0.21167-0.15875 0.26458-0.39688 0.13229-0.1852 0.18521-0.1323 0.3175z" name="Camarines Norte"/>
  <path d="m112.01 161.97 0.18521 0.23813 0.29104 0.10583 0.1323 0.34396-0.15875 0.34396-1.3229 0.87312-0.18521-0.1852-0.26458-0.0265-0.0794-0.23813-0.0265-0.26458-0.13229-0.37042 0.21167-0.34396 0.15875 0.21167 0.10583-0.0265 0.21167 0.13229 0.0265-0.21166 0.10583-0.10584h0.15875l0.13229-0.0794h0.15875l0.3175 0.26458-0.0529-0.26458-0.18521-0.26458-0.13229 0.0264-0.0529-0.13229 0.0265-0.15875 0.10583-0.0265zm-1.5875 12.568h-0.26458l-0.50271 0.0529-0.39687 0.21167-0.18521 0.42333 0.15875 0.34396 0.29104 0.23812 0.37042 0.18521 0.26458 0.29104 0.21167 0.60854 0.0794 0.68792-0.13229 0.66146-0.3175 0.55562-0.37042 0.34396h-0.3175l-0.34395-0.10583-1.1377-0.3175-0.10584 0.0794-0.1852 0.29105-0.15875 0.0794-0.50271-0.15875-0.23813-0.21167h-0.23812l-3.9952 3.5983-0.21167 0.15875-0.23812-0.26459-1.0054-0.71437-0.42334-0.52917-0.10583-0.23812-0.15875-0.44979-0.10583-0.23813-0.74084-0.79375 0.15875-0.76729-0.26458-0.9525-0.50271-0.82021-0.60854-0.3175-0.79375-0.21167-1.4288-0.92604-0.79375-0.21166-0.44979-0.0794-0.60854-0.23812-0.42334-0.0794-0.26458-0.13229-0.66146-0.635-1.7198-1.2171-0.34396-0.1323-0.37041-0.21166-0.82021-1.0054-0.39688-0.34396 1.3229-1.1377-1.3494-1.5346-0.66146-0.55562-0.84667-0.42334v-0.18521l0.37042-0.0265-0.13229-0.23813-0.37042-0.3175-0.39688-0.21167-1.0583-0.21166-0.26458-0.15875-0.3175 0.3175-0.37042 0.0265-0.34396-0.18521-0.26458-0.37042 0.05292-0.10583 0.18521-0.15875 0.13229-0.15875-0.10583-0.23813-0.82021-0.82021-0.34396-0.21166-0.37042-0.15875-0.34396-0.0529-0.10583-0.18521-0.07937-0.37041-0.13229-0.23813-0.34396 0.18521-0.05292-0.13229 0.07938-0.10584 1.4817-0.76729 3.81-0.42333 1.6669-0.39688 2.54 0.635 0.42334 0.15875 0.21166 0.18521 0.42334 0.55563 1.3758 1.2171 0.39687 0.50271 0.50271 0.97896 0.3175 0.42333 0.18521 0.15875-0.0529 0.3175 0.0794 0.97896 0.44979 0.55562 0.60854 0.42334 0.52917 0.52916h0.21167l0.58208-0.29104 0.66146-0.0265 1.4552 0.1323 0.29104-0.0529 0.84666-0.34396 0.29105-0.18521 0.9525-1.1112 0.3175-0.68791 0.0529-0.18521-0.1852-0.37042-0.3175-1.0319-0.42334-0.60855-0.0265-0.42333 0.89959-0.66146 0.34396-0.26458 0.15875-0.39688 0.0794-0.42333 0.0265-0.37042-0.29104 0.29105-0.34396 0.87312-0.21167 0.18521-0.39687-0.0265-0.26459-0.0265-1.2435-0.79375-0.3175-0.3175-0.13229-0.47625 0.26458-0.23812 0.47625-0.15875 0.23813-0.21167-0.42333-0.26458 0.55562-0.21167 0.0794-0.3175-0.26458-0.74083 0.26458-0.13229 0.55563 0.1852 0.87313 0.42334v-0.15875l-0.10584-0.0794-0.26458-0.3175 0.79375 0.0265 0.15875-0.0265v-0.21166l-0.23813-0.47625 0.1323-0.10584 0.37041 0.15875 0.21167 0.39688 0.26458 1.0054-0.47625 0.1323-0.0794 0.3175 0.10583 0.3175 0.15875 0.10583 0.50271-0.47625 0.23812-0.15875 0.29105-0.0529-0.1323 0.18521-0.23812 0.58208 0.37042-0.1852 0.1852 0.1852-0.10583 0.50271 0.52917 0.79375-0.21167 0.42334 0.18521 0.26458 0.10583 0.29104 0.0794 0.3175v0.3175h0.18521l0.13229-0.34396 0.21166-0.29104 0.18521-0.34396 0.0265-0.55562 0.52917 0.13229 0.37041 0.15875 0.23813 0.3175 0.15875 0.52917 1.27-0.10584 2.0108 0.76729 1.8785 0.37042 0.84667-1.4023 0.60854 1.0319 0.84667 0.92605 1.0583 0.76729 1.9844 0.84666 0.18521 0.26459 0.3175 0.10583h0.66145l0.34396 0.10583 0.15875 0.18521 0.39688 0.79375 0.44979 0.42334 0.10583 0.3175-0.18521 0.39687-0.47625-0.37042-0.15875-0.1852-0.13229-0.21167h-0.15875l-0.21166 0.37042-0.39688-0.18521-0.47625-0.13229-0.89958-0.0529-0.23813 0.23812-0.39687 0.52917-0.47625 0.52917-0.58209 0.23812-0.5027-0.13229-0.97896-0.50271-1.5081-0.23812h-0.58208l-0.26458 0.21166-0.23813 0.21167-0.58208-0.21167-0.635-0.3175-0.42334-0.1852-0.47625 0.1852-0.29104 0.37042-0.87312 2.3283-0.0529 0.58209 0.23813 0.0529 0.10583 0.0794-0.13229 0.29104v0.44979l0.0529 0.3175 0.18521 0.0794 0.23813-0.0794 0.26458-0.21166zm-12.409-2.54 2.5665 1.4552 3.6777-1.4552-2.0373-1.2171-1.8521 0.44979z" name="Camarines Sur"/>
  <path d="m127.97 159.37 0.44979 0.60854 0.37042 0.68792 0.21166 0.74083 0.10584 1.1377 0.26458 0.0794 0.21167 0.21167 0.37041 0.47625-0.21166 0.21167 0.13229 0.1852 0.0794 0.21167h0.18521l0.39688-0.74083 0.76729 0.34396 1.6404 1.3494v0.21167l-0.39688 0.23812-0.37042 0.3175 0.37042 0.18521 0.18521 0.37042 0.0794 0.39687 0.1323 0.39688-0.52917 0.21166h-0.23813l0.21167 0.29105 0.0265 0.23812-0.0794 0.82021-0.13229 0.58208-0.0265 0.29104 0.47625 0.7673 0.0265 0.47625-0.58208 0.1852h-0.58208l-0.29105 0.0265-0.10583 0.21167-0.0529 0.52917-0.42333 1.7198 0.0265 0.39687-0.39688-0.29104-0.37041-0.58208-0.37042-0.42334-0.34396 0.15875-0.34396-0.10583-0.44979 0.0794-0.44979 0.21166-0.34396 0.29104-0.18521 0.39688-0.21166 0.55562-0.23813 0.47625-0.3175 0.21167-0.47625-0.18521-1.4817-1.3494-0.82021-0.635-0.47625-0.15875h-0.58209l0.10584-0.39688-0.0794-0.37041-0.21166-0.37042-0.26459-0.29104-0.13229-0.37042 0.26458-0.3175 0.71438-0.37042 0.68792-0.60854 0.55562-0.82021 0.39688-0.97895 0.21166-1.0848-0.23812-1.614 0.13229-0.39688 0.29104-0.50271-0.0529-0.47625-0.37041-1.0848-0.13229-0.50271v-0.21166l0.37041-0.37042 0.18521-0.26458-0.0794-0.23813-0.23813-0.39687v-0.4498l0.13229-0.42333 0.21167-0.39687 0.34396 0.47625 0.39687-0.10584 0.55563-0.55562 0.23812-0.13229 0.21167-0.0529 0.18521 0.0265 0.21166 0.13229z" name="Catanduanes"/>
  <path d="m103.91 202.08v0.13229l-0.47625-0.10583 0.0529 0.42333 0.42333 1.0054-0.15875 0.21166-0.3175 0.23813-0.3175 0.3175-0.15875 0.47625 0.15875 0.37041 0.3175-0.21166 0.47625-0.635 0.37042-0.0529 0.15875-0.15875-0.0265-0.39687 0.13229-0.3175 0.21167-0.3175h0.0794l0.21166-0.18521 0.47625-0.0529 0.52917 0.0794 0.37042 0.15875 0.87312 0.89958 0.42333 0.34396 0.47625 0.21166h0.9525l0.1323 0.10584 0.3175 0.47625 0.23812 0.23812 0.23813 0.50271 0.3175 0.52917 0.44979 0.23812v0.21167l-0.3175 0.0265-0.21167 0.15875-0.0794 0.23812 0.0264 0.34396 0.92605-0.47625 0.39687-0.0529 0.18521 0.42334 0.13229 0.18521 0.26458 0.0529h0.29105l0.23812 0.0529 0.29104 0.18521 0.23813 0.21166 0.21166 0.26459 1.7198 2.9898 0.71437 0.74083-0.13229-1.2171 0.18521-0.44979 0.635 0.42333 0.82021 0.87313 0.39687-0.0529 0.29104-0.21167 0.23813-0.0794 0.18521 0.15875 0.26458 0.55562 1.4552 2.3283 0.15875 0.10583 0.42333 0.13229 0.15875 0.13229 0.10583 0.23813 0.26459 0.92604 0.15875 0.26458 1.1377 1.4552 0.26458 0.44979 0.13229 0.47625-0.44979-0.29104-0.55563-0.84667-0.5027-0.37041 0.0794 0.29104 0.13229 0.21167 0.37042 0.44979-0.3175 0.23812 0.10583 0.3175 0.55563 0.79375 0.68791 1.4288 0.0794 0.37042v0.66146l-0.15875 0.76729-0.0265 0.29104 0.10583 0.44979 0.23813 0.55563 0.13229 0.55562-0.10583 0.44979-0.37042 0.0794-0.37042-0.50271-0.55562-1.1112-0.34396-0.37042-0.92604-0.79375-0.79375-0.3175-0.58208-0.66145-0.92605-0.3175-0.42333-0.37042-0.52917-0.82021-0.34395 0.21167-0.50271-0.10584-1.0054-0.44979-0.635 0.29104-0.58208-0.3175-0.50271-0.5027-0.34396-0.26459 0.10583-0.34396 0.18521-0.23812 0.26459-0.15875h0.37041l-0.37041-0.76729-0.18521 0.37041h-0.18521l-0.23813-0.34395-0.3175-0.37042-0.37041-0.3175-0.68792-0.29104-0.23812-0.39688 0.0529-0.34396 0.47625-0.0529-0.58208-0.18521-0.55563 0.0529-0.39687-0.10584-0.29104-1.0848-0.34396-0.47625-0.82021-0.87312-0.39687-0.60855-0.18521-0.15875-0.79375-0.34395-0.21167-0.1323-0.47625-0.1852-0.66146 0.0529-0.60854 0.21167-0.39687 0.21167-0.34396 0.34395-0.82021 1.2171-0.23813 0.74083-0.23812 0.34396-0.26458 0.29104-0.26459 0.13229-0.3175 0.0265-0.13229 0.13229-0.21167 0.39688-1.5081 1.7727-2.3019 2.1431-0.60854 0.37042-0.26458-0.34396 0.0529-0.58208 0.15875-0.66146 0.21166-0.55563 0.23813-0.23812 0.3175-0.0529 0.13229-0.18521 0.0265-0.60854 0.0529-0.37042 0.34396-0.55562 0.15875-0.3175-0.0265-1.0319 0.15875-0.52916 0.42333 0.21166 0.15875-0.37041 0.18521-0.29104 0.29104-0.21167 0.39688-0.0529 0.21167-0.15875-0.10583-0.3175-0.37043-0.50271 0.37043-0.23812 0.37041-0.15875 0.21167-0.23813-0.0265-0.52916-0.92605-0.0265-0.635 0.0529-0.50271 0.1852v-0.1852l-0.0265-0.84667 0.84667-1.1642 0.10583-0.39687 0.10584-0.82021 0.39687-1.4023 0.0794-0.66146-0.0529-0.42333-0.15875-0.23813-0.26458-0.15875-0.37042-0.3175-0.29104-3.2544 0.0794-0.34396 0.21167-0.0529 0.26458 0.0794 0.26458 0.15875 0.42334 0.1852 0.76729 0.1323 0.42333 0.13229 0.26459 0.15875 0.21166 0.23812 0.23813 0.15875zm7.964-3.0692 1.3494 0.82021 0.23812 0.0794-0.0265 0.18521-0.10583 0.0794 0.13229 0.10583 0.3175 0.10583 0.23813 0.18521 0.18521 0.29104-0.1323 0.50271 0.21167 0.55563 0.3175 0.52916 0.15875 0.42334 0.10583 0.44979 0.37042 0.89958 0.3175 1.4817 0.0529 0.13229 0.15875 0.13229 0.0265 0.29104-0.0794 0.635 0.15875 0.55563 0.0265 0.34396-0.10583 0.15875-0.21167-0.0794-0.21167-0.23812-0.15875-0.26459-0.0529-0.29104-0.1323-0.26458-0.8202-0.76729-4.0746-6.1119-0.0794-0.26458 0.0265-0.34396h0.1852l0.23813 0.13229 0.13229-0.37041 0.0794-0.55563 0.13229-0.37042h0.23812l0.3175 0.29105zm-12.171-6.985 0.68791 0.23813 0.52917-0.23813 0.42333 0.23813 0.18521 0.29104 0.10584 0.29104 0.21166 0.34396 0.18521 1.4023 2.0108 2.196 0.42333 1.2171-0.9525-0.68791-1.8521-2.6194-0.58209-0.60854-0.37042-0.23812-1.0319-0.21167-0.42334-0.26458-2.0638-1.8256-0.21166-0.39687-0.10584-0.0265-0.47625-0.52917-0.0794-0.10583-0.21166-0.10584-0.10584-0.1852-0.15875-0.47625-0.68791-0.4498-1.6669-0.39687-0.635-0.68792-0.18521-1.5875v-0.3175l0.37042-0.23812 0.47625-0.0529 0.37042-0.21167 0.0794-0.68791 0.34396 0.10583 0.34395 0.18521 0.635 0.42333 0.26459 0.26459 0.23812 0.3175 0.42334 0.635 0.55562 1.1642 0.66146 0.52917 0.10583 0.13229 0.0794 0.34396 0.37042 0.68792 0.10583 0.3175 0.0529 0.0794 0.42334 0.87313 0.44979 0.42333z" name="Masbate"/>
  <path d="m107.75 190.12 0.0265-0.0265 0.635-0.74083 0.87313-0.44979 2.8575-0.74084 0.84666-0.0529 0.84667 0.10583 0.9525 0.23813 0.9525 0.0794 1.6404-0.34396 0.9525-0.10583 0.66145-0.18521 0.29105-0.50271 0.15875-0.68791 0.3175-0.635 0.0529 0.29104 0.15875 0.0265 0.97896 0.26458 0.34396 0.18521 0.44979 0.3175 0.34396 0.37041 0.15875 0.37042 1.2171 1.0583 0.29104 0.18521 0.26459-0.26458 0.55562-1.1642 0.10584-0.39687 0.29104-0.10584 0.635 0.15875 0.635 0.26459 0.3175 0.15875 0.10583 0.50271-0.0794 0.52916-0.21167 0.29104-0.34396-0.15875-0.34396 0.42334-0.15875 0.3175-0.26458 0.79375-0.50271 1.0054-0.0794 0.26459 0.10583 0.42333 0.37042 0.635 0.26458 1.7992v0.47625l-0.37042 3.3602-0.18521 0.42333-0.76729 0.52917-0.15875 0.39687 0.0794 0.47625 0.13229 0.29104-0.0265 0.21167-0.37042 0.29104 0.1323 0.18521 0.23812 0.55562-0.34396 0.10584-0.44979 0.34396-0.3175 0.10583-0.34396 0.0529-0.87312-0.0529-0.74084-0.26458-0.635-0.60855-0.76729-1.2171 0.0529-0.29104-0.10583-0.0265-0.42334 0.10583-0.42333-0.44979-0.55563-0.26458-0.23812-0.42333-0.18521-0.52917-0.55562-1.0319v-0.55562l0.13229-0.55563 0.0265-0.58208-0.18521-0.68792-0.3175-0.3175-0.47625-0.1852-0.52917-0.34396 0.71438-0.0265 0.52916-0.21167 0.39688-0.37041 0.26458-0.55563 0.29104 0.15875 0.44979 0.44979 0.18521 0.15875 0.26459 0.10584 0.58208-0.10584 0.34396-0.0794 0.0794-0.23813v-0.26458l0.13229-0.26458 0.29105-0.1323 0.29104 0.0529 0.44979 0.15875 0.44979-0.18521 0.42333-0.39687 0.3175-0.50271 0.10584-0.52917-0.23813-0.71437-0.55562-0.15875-1.2435 0.18521-0.50271-0.0794-0.82021-0.39687-0.47625-0.0794-0.3175 0.23813-0.21167 0.52916-0.13229 0.58209-0.15875 0.37041-0.66146 0.71438-0.42333 0.29104-0.66146 0.18521-0.23812 0.13229-0.18521 0.0265-0.15875-0.0529-0.23813-0.26458-0.15875-0.0529-0.13229 0.10583-0.29104 0.47625-0.50271 0.3175-0.10583 0.0265-0.15875-0.39687-0.21167-0.37042 0.29104-0.10583 0.23813-0.18521 0.0265-0.18521-0.29105-0.0794-0.68791 0.0264-0.18521 0.0794 0.13229 0.15875 0.0794 0.23812v0.26459l-0.55563-0.52917 0.26458-0.60854 0.4498-0.60854-0.1323-0.10584-0.21166 0.10584h-0.26459l-0.34395 0.0794-0.1323 0.21167-0.0529 0.23812-0.13229 0.23813-0.29105 0.39687h-0.37041l-0.47625-0.10583-0.26459-0.0794-0.1852-0.10584-0.7673-0.89958-0.3175-0.26458-0.52916-0.29105-0.50271-0.15875-0.23813-0.0794-0.26458-0.23813z" name="Sorsogon"/>
  <path d="m43.008 56.637-0.15875 0.23812-0.44979 0.23812-0.13229 0.15875v0.89958l0.3175 0.79375 0.15875 0.76729-0.37042 0.84667-0.60854 0.44979-1.4552 0.66146-0.55562 0.50271-0.29104 0.82021-0.13229 1.8521-0.26458 0.87312-1.5346 2.4077-0.3175 0.92604-0.21167 1.3229-0.29104 0.44979-0.60854 0.15875-1.0848-0.635-0.58208-0.21167-0.47625 0.18521-0.58208 0.79375-0.55562 0.55562-0.66146 0.07937-0.84667-0.66146-0.34396-0.58208-0.10583-0.58208-0.02646-0.60854-0.18521-0.60854-0.23812-0.18521-0.74083-0.05292-0.3175-0.07937-0.21167-0.26458-0.07938-0.29104-0.13229-0.21167-0.29104-0.07937-0.79375-0.07937-0.60854-0.34396-0.39688-0.60854-0.05292-0.82021 0.37042-0.74083 0.58208-0.82021 0.47625-0.84667v-0.82021l-0.37042-0.34396-0.58208-0.23812-0.68792-0.07937-0.52917 0.05292-0.82021 0.18521-0.23812-0.13229 0.42333-2.54 0.39688-1.2171 0.52917-1.1377 0.60854-0.97896 0.37042-0.79375 0.55562-0.9525 0.635-0.89958 0.60854-0.66146 0.76729-0.39688 0.74083-0.13229 0.68792-0.26458 1.2171-1.3229 0.76729-0.55562 1.5346-0.89958 0.76729-0.13229 0.87312 0.07938 0.82021-0.07938 0.55562-0.52917 0.71438 0.21167 0.44979 0.39688 0.29104 0.55562 0.26458 1.4552 0.13229 0.3175 0.21167 0.34396 0.3175 0.39688 0.21167 0.07938 0.26458-0.02646 1.1377 0.05292 0.21167 0.13229 0.29104 0.39688 0.21167 0.47625 0.13229 0.50271 0.34396 2.4342z" name="Abra"/>
  <path d="m71.9 60.711-8.0962-0.02646-0.50271 0.07937-0.87312 0.37042-0.44979 0.07938h-3.2279l-1.3758 0.15875-0.39688-0.29104-0.44979-0.29104-0.44979-0.21167-0.47625-0.18521-0.58208-0.3175-0.47625-0.47625-0.84667-1.1112-1.905-2.0638-0.52917-0.76729-0.21167-0.47625-0.3175-1.0848-0.23812-0.47625-0.39688-0.37042-0.3175-0.05292-0.39688 0.02646-0.50271-0.13229-0.635-0.47625v-0.52917l0.37042-0.58208 0.52917-0.52917 0.21167-0.39688 0.44979-1.3494 2.3548-4.4979 0.37042-1.1906 0.26458-1.3229 0.05292-1.3229-0.23812-1.1112-0.58208-0.89958-4.8683-3.1485-1.4023-0.68792-2.8046-0.92604-0.66146-0.50271-0.21167-0.44979-0.05292-0.47625-0.10583-0.39688-0.39688-0.15875-0.37042 0.13229-0.23812 0.3175-0.21167 0.39688-0.26458 0.29104-0.52917 0.39688-0.39688 0.42333-0.44979 0.34396-0.68792 0.26458 0.42333-3.0956 0.26458-1.0319 0.34396-0.44979 0.635-0.34396 0.39688-0.13229h0.26458l0.55562 0.05292 0.26458-0.05292 0.29104-0.15875 0.3175-0.26458 0.3175-0.15875 0.3175 0.10583 0.21167 0.13229 0.29104 0.07937 0.60854 0.07938 0.3175 0.07937 0.18521 0.23812 0.15875 0.23812 0.18521 0.23812 1.3758 0.66146 0.71438 0.66146 2.6723 1.4023 0.37042 0.34396 0.39688 0.23812 0.87312 0.26458 2.0373 1.3758 0.21167 0.07937 0.37042 0.05292 0.15875 0.05292 0.18521 0.21167 0.15875 0.23812 0.21167 0.23812 1.2435 0.42333 0.58208 0.71438 0.44979 0.79375 0.55562 0.52917v-0.1852l-0.42333-0.42333 0.02646-0.58208 0.26458-0.42333 0.39688 0.13229 0.37042 0.29104 4.9212 1.9315 1.1642 0.23812 0.58208 0.02646 1.561-0.21167 0.34396-0.13229 1.4552-0.84667 1.0583-1.7198 0.34396-0.26458 0.55562-0.10583 0.21167-0.29104 0.07937-0.97896 0.635-2.0373 0.21167-0.3175 1.27-0.13229 0.55562 0.02646 0.42333 0.18521 0.21167 0.44979 0.10583 1.1642 0.13229 0.47625 0.23812 0.3175 0.74083 0.66146 0.26458 0.15875 0.52917 0.76729 0.21167 1.1642-0.13229 1.27-0.34396 1.1906-0.50271 0.9525-0.71438 0.92604-0.42333 0.39688-0.92604 0.635-0.89958 0.84667-0.15875 0.21167-0.13229 0.37042-0.02646 0.34396 0.18521 0.47625 0.05292 0.23812v0.97896l0.15875 0.9525v0.34396l-1.1906 5.3446v0.29104l0.10583 0.66146-0.02646 0.21167-0.18521 0.37042v0.21167l0.10583 0.21167 0.37042 0.42333 0.07937 0.23812v2.5135l0.18521 0.74083zm-19.844-38.629 0.23812 0.07938h0.29104l-0.66146 0.44979-0.60854 0.29104-0.66146 0.15875-2.4077 0.21167-0.66146-0.10583-0.42333-0.44979-0.10583-0.39688 0.13229-0.13229 0.52917-0.02646 1.4817-0.50271 0.9525-0.10583 0.76729-0.15875 0.37042 0.07937 0.37042 0.29104 0.18521 0.21167zm13.732-3.3602 0.10583 0.26458 0.18521 0.18521 0.34396 0.29104 0.18521 0.39688-0.05292 0.34396-0.71438 0.3175-0.55562 0.82021-0.34396 0.42333-0.92604 0.79375-0.39688 0.50271-0.15875 0.58208-0.26458 0.23812-0.50271-0.07938-0.37042-0.26458 0.18521-0.42333 0.02646-0.55562 0.55562-0.47625 0.34396-0.47625-0.55562-0.66146 0.26458-0.3175 0.21167-0.44979 0.07937-0.42333-0.07937-0.18521 0.21167-0.10583 0.37042-0.60854 0.26458-0.26458 0.15875 0.02646 0.34396 0.18521 0.15875-0.18521 0.55562-0.23812 0.23812 0.10583zm-19.182-1.2965-0.37042 0.79375-0.97896-0.92604-0.34396-0.44979-0.18521-0.635 0.07937-0.68792 0.42333-1.2171 0.07937-0.66146 0.23812 0.13229 0.15875 0.15875 0.10583 0.21167 0.23812 1.1642 0.37042 1.0848zm5.2917-9.816 0.50271 0.07937 0.50271-0.10583 0.42333-0.18521 0.3175-0.05292 0.26458 0.34396v1.3758l-0.02646 0.18521 0.02646 0.21167 0.3175 0.39688 0.21167 0.47625 0.05292 0.21167-0.10583 0.13229-0.47625-0.02646-0.18521 0.02646-0.18521 0.13229-0.15875 0.34396-0.21167 0.07937-0.76729-0.29104-0.15875-0.15875-1.0583-0.635-0.13229-0.02646-0.42333-0.02646-0.18521-0.13229-0.15875-0.23812-0.3175-0.66146-0.87312-1.0319 0.02646-0.15875 0.47625-0.07937 0.29104-0.15875 0.47625-0.55562zm14.922-5.08-0.18521 0.34396-0.13229 1.0054-0.23812 0.42333-0.47625 0.21167-0.37042-0.15875-0.635-0.66146-0.50271-0.29104-0.18521-0.21167-0.07937-0.26458 0.02646-0.3175 0.10583-0.05292h0.15875l0.55562-0.10583 0.39688 0.07937h0.23812l0.21167-0.13229 0.3175-0.3175 0.21167-0.05292 0.39688 0.18521 0.15875 0.15875z" name="Cagayan" class="area-hover" content="Comprehensive Land Use Plan 2021-2030 Protected Landscape and Seacape|Protected Landscape and Seascape Management Plan|Baggao River Basin Irrigation Water Resources Management System|San Pablo-Cabagan River Basin Irrigation Water Resources Management System|Department of Agrarian Reform Region 2|Department of Interior and Local Government Region 2|Cagayan Provincial Environment and Natural Resources Office|Environmental Management Bureau Region 2"/>
  <path d="m51.263 55.658-3.6248 0.44979-2.1167 0.55562-2.5135-0.02646 0.02646-0.39688-0.34396-2.4342-0.13229-0.50271-0.21167-0.47625-0.29104-0.39688-0.21167-0.13229-1.1377-0.05292-0.26458 0.02646-0.21167-0.07938-0.3175-0.39688-0.21167-0.34396-0.13229-0.3175-0.26458-1.4552-0.29104-0.55562-0.44979-0.39688-0.71438-0.21167-0.13229-0.44979 0.37042-0.39688v-0.76729l-0.21167-1.5081 0.05292-0.66146 0.13229-0.50271 0.26458-0.44979 0.635-0.82021 0.07937-0.29104-0.07937-0.3175-0.21167-0.34395-0.42333-0.29104-0.55562-0.21167-0.47625-0.34396-0.23812-0.52917 0.07937-0.34396 0.23812-0.15875 0.3175-0.13229 0.3175-0.26458 0.26458-0.55562 0.05292-0.60854-0.07937-0.60854-0.13229-0.55562-0.05292-0.66146 0.26458-1.3494 0.05292-0.68792 0.68792-0.26458 0.44979-0.34396 0.39688-0.42333 0.52917-0.39688 0.26458-0.29104 0.21167-0.39688 0.23812-0.3175 0.37042-0.13229 0.39688 0.15875 0.10583 0.39688 0.05292 0.47625 0.21167 0.44979 0.66146 0.50271 2.8046 0.92604 1.4023 0.68792 4.8683 3.1485 0.58208 0.89958 0.23812 1.1112-0.05292 1.3229-0.26458 1.3229-0.37042 1.1906-2.3548 4.4979-0.44979 1.3494-0.21167 0.39688-0.52917 0.52917-0.37042 0.58208v0.52917l0.635 0.47625 0.50271 0.13229 0.39688-0.02646 0.3175 0.05292 0.39688 0.37042 0.23812 0.47625 0.3175 1.0848z" name="Apayao"  content="West Apayao-Abulug River Basin Irrigation Water Resources Management System" class="area-hover"/>
  <path d="m39.41 30.125-0.34396 0.44979-0.26458 1.0319-0.42333 3.0956-0.05292 0.68792-0.26458 1.3494 0.05292 0.66146 0.13229 0.55562 0.07937 0.60854-0.05292 0.60854-0.26458 0.55562-0.3175 0.26458-0.3175 0.13229-0.23812 0.15875-0.07937 0.34396 0.23812 0.52917 0.47625 0.34396 0.55562 0.21167 0.42333 0.29104 0.21167 0.34396 0.07937 0.3175-0.07937 0.29104-0.635 0.82021-0.26458 0.44979-0.13229 0.50271-0.05292 0.66146 0.21167 1.5081v0.76729l-0.37042 0.39688 0.13229 0.44979-0.55562 0.52917-0.82021 0.07938-0.87312-0.07938-0.76729 0.13229-1.5346 0.89958-0.76729 0.55562-1.2171 1.3229-0.68792 0.26458-0.74083 0.13229-0.76729 0.39688-0.60854 0.66146-0.635 0.89958-0.55562 0.9525-0.37042 0.79375-0.79375-0.82021 0.15875-1.2965 0.50271-1.4288 0.15875-1.1112-0.42333-0.635-0.66146-0.26458-0.76729-0.02646-0.76729 0.07938-0.50271 0.05292-0.02646-0.23812 0.07937-0.42333 0.66146-0.92604 0.55562-1.2171 0.13229-0.37042 0.02646-0.50271-0.02646-0.635-0.10583-0.58208-0.18521-0.37042 0.10583-0.39688 1.5346-3.2544-0.18521-0.05292-0.05292-0.18521v-0.15875l0.3175-0.15875 0.18521-0.47625 0.82021-1.5081 0.34396-0.9525 0.18521-1.1112-0.02646-1.1906-0.3175-1.0848-0.3175-0.76729-0.02646-0.50271 0.26458-0.42333 0.55562-0.58208 0.55562-0.47625 0.44979-0.07937 1.1642 0.26458 0.55562-0.05292 1.2435-0.44979 0.50271-0.10583 0.44979-0.23812 0.13229-0.58208v-0.66146l0.10583-0.50271 0.37042-0.39688 0.55562-0.23812 0.58208-0.05292 0.44979 0.21167 0.39688 0.52917 0.71438 1.1642 0.47625 0.37042 0.47625 0.02646 0.55562-0.15875 0.47625-0.29104 0.15875-0.26458 0.23812-0.21167z" name="Ilocos Norte"/>
  <path d="m26.948 56.054-0.60854 0.97896-0.52917 1.1377-0.39688 1.2171-0.42333 2.54 0.23812 0.13229 0.82021-0.18521 0.52917-0.05292 0.68792 0.07937 0.58208 0.23812 0.37042 0.34396v0.82021l-0.47625 0.84667-0.58208 0.82021-0.37042 0.74083 0.05292 0.82021 0.39688 0.60854 0.60854 0.34396 0.79375 0.07937 0.29104 0.07937 0.13229 0.21167 0.07938 0.29104 0.21167 0.26458 0.3175 0.07937 0.74083 0.05292 0.23812 0.18521 0.18521 0.60854 0.02646 0.60854 0.10583 0.58208 0.34396 0.58208 0.84667 0.66146 0.66146-0.07937 0.55562-0.55562 0.58208-0.79375 0.47625-0.18521 0.58208 0.21167 1.0848 0.635-1.0054 0.34396-0.74083 0.79375-0.52917 1.0583-0.26458 1.0054-0.02646 1.0583 0.18521 1.0583 0.02646 1.0583-0.39688 1.0848-0.9525 0.44979-1.0848 0.05292-1.0054 0.21167-0.66146 1.0319-0.52917 4.736-0.635 1.1906-0.92604-0.92604-0.21167-0.29104-0.15875-0.37042-0.02646-0.21167 0.07937-0.50271v-1.1906l-0.13229-0.42333-0.37042-0.13229 0.10583-0.44979-0.13229-0.3175-0.26458-0.3175-0.18521-0.44979 0.05292-0.39688 0.26458-1.0848-0.05292-0.34396-0.21167-0.15875-0.21167 0.05292-0.18521 0.10583-0.21167 0.07937-0.42333-0.13229-0.89958 0.18521h-0.42333l-0.47625-0.15875-0.39688-0.18521 0.79375-1.2171 0.18521-0.58208 0.07937-0.74083-0.55562-4.8948-0.05292-0.13229-0.26458-0.39688-0.07937-0.26458 0.02646-0.42333 0.26458-1.2171-0.10583-1.6669 0.07937-0.15875 0.50271-0.55562 0.21167-0.3175 0.10583-0.26458 0.05292-0.26458v-0.3175l-0.21167-0.97896-0.92604-2.1431v-0.60854l-1.1906-0.34396-0.47625-0.23812-0.18521-0.50271 0.52917-3.4925 0.29104-0.26458 0.55562-0.07938 0.50271-0.18521 0.26458-0.47625 0.10583-0.50271v-0.39688l-0.21167-0.44979-0.3175-0.29104-0.15875-0.3175 0.21167-0.42333 0.66146-0.79375 0.13229-0.39688 0.05292-0.66146-0.10583-0.9525 0.50271-0.05292 0.76729-0.07938 0.76729 0.02646 0.66146 0.26458 0.42333 0.635-0.15875 1.1112-0.50271 1.4288-0.15875 1.2965z" name="Ilocos Sur"/>
  <path d="m51.739 127.2-0.23812 0.0265-0.47625-0.0529-0.29104 0.18521-0.15875 0.34396-0.13229 0.5027-0.3175 0.1323-0.07937 0.1852 0.15875 0.10584 0.15875-0.10584 0.18521 0.66146 0.05292 0.26459-0.29104 0.71437-0.55562 0.66146-0.50271 0.68792 0.02646 0.74083h-0.37043l-0.34396-0.10583-0.71438-0.74084-0.29104-0.42333v-0.47625l0.42333-1.2171 0.02646-0.55563-0.21167-0.79375 0.82021-4.154 0.92604-3.0427 0.05292-1.0054-0.18521-1.0583-2.5665-7.6465 4.9212-4.1804 9.869-8.3608 1.7462-1.7992 4.4979-6.4294 5.6621-0.07937-0.15875 0.18521-0.10583 0.23812-0.05292 0.26458-0.02646 0.55562-0.07937 0.15875-0.47625 0.34396-0.18521 0.39688 0.02646 0.3175 0.3175 0.84667 0.18521-0.39688 0.02646-0.21167h0.18521l-0.18521 1.0054-0.89958 1.7992 0.13229 0.71438 0.47625-0.42333 0.47625-0.34396-0.07937 0.42333-0.68792 1.1377v0.18521l0.05292 0.42333-0.05292 0.18521-0.13229 0.07937-0.44979 0.05292-0.13229 0.05292-0.76729 0.97896-0.92604 0.76729-0.87312 0.87313-0.18521 0.13229-0.07937 0.15875-0.05292 0.23813 0.05292 0.55562-0.39688 0.60854-1.1906 0.76729-0.47625 0.58209-0.18521-0.21167 0.55562-0.79375 0.26458-0.50271 0.10583-0.55562 0.21167-0.39688 1.2965-0.87312 0.18521-0.47625 0.15875-0.635 0.23812-0.58208 0.84667-0.50271 0.21167-0.52917-0.15875-0.47625-0.74083-0.10583-0.55562 0.26458-0.26458 0.39688-0.10583 0.47625v0.52917l-0.18521 0.44979-0.44979 0.26458-1.0583 0.34396-1.561 0.84667-0.39688 0.10583-0.97896 0.15875-0.97896 0.26459-0.34396 0.23812-0.3175 0.34396-0.39688 0.26458-0.82021 0.21167-0.3175 0.15875-0.29104 0.10583-0.44979-0.1852-0.23812 0.0794-1.8521 1.5875-0.15875 0.3175-1.0054 1.1642-1.3229 0.68792-0.42333 0.37042-0.29104 0.47625-0.21167 0.58208-0.18521 1.1906 0.05292 0.68792 0.42333 1.0054 0.10583 0.52916 0.29104 0.26459 0.66146 0.0794 0.60854 0.15875 0.29104 0.58208-0.15875 0.39688-1.1377 1.3494 0.44979 0.10583 0.23812 0.10584 0.26458 0.18521-1.0583 0.58208-0.47625 0.37042-0.18521 0.47625-0.13229 0.55562-0.34396 0.42333-1.4552 1.2436-0.23812 0.34395-0.21167 1.8256-0.18521 0.50271-0.23812 0.47625-1.0319 1.3494-0.47625-0.10583-0.29104-0.15875-0.21167 0.15875-0.23812 0.71437-0.07937 1.2436 0.34396 1.1906 0.60854 0.97896 0.82021 0.635z" name="Aurora"/>
  <path d="m52.877 86.799h-0.60854l-1.0583-0.18521-0.74083-0.44979-0.07937-0.87312-0.18521-0.34396 2.3548-0.82021 0.74083 1.2171zm19.024-26.088 0.26458 0.635 0.07937 0.71438 0.26458 0.55562 0.50271 0.66146 0.39688 0.71438-0.02646 0.71438 0.13229 0.3175 0.07937 0.47625 0.13229 0.39688 0.3175 0.18521 0.42333-0.21167 0.23812 0.02646 0.50271 0.47625 0.23812 0.10583 0.3175-0.02646 0.74083-0.29104 0.34396-0.07938 0.44979 0.18521 0.23812 0.87312 0.34396 0.3175-0.13229-0.66146 0.44979 0.29104 0.55562 0.76729 0.23812 0.76729-0.50271-0.39688-0.29104-0.13229-0.13229 0.23812 0.05292 0.42333 0.23812 0.82021 0.07937 0.3175-0.07937 0.42333-0.26458 0.87312-0.02646 0.39688 0.18521 0.44979 0.68792 0.52917 0.26458 0.39688 0.07937-0.13229 0.29104-0.26458 0.42333 0.10583 0.26458-0.26458 0.29104-0.18521 0.50271 0.34396 0.26458 0.50271v0.55562l-0.21167 0.52917-0.34396 0.47625-0.13229 0.26458-0.07937 0.34396-0.13229 0.3175-0.21167 0.13229-0.13229 0.13229-0.29104 0.68792-0.34396 2.2225 0.13229 0.47625-0.44979 0.87312-0.71438 2.0108-1.3494 2.3019-0.21167 0.82021-0.52917 1.2171-0.21167 0.3175-0.34396 0.42333-0.68792 1.4552-0.39688 0.52917-0.89958 0.76729-0.23812 0.26458-5.6621 0.07937-7.4083 3.1485-0.37042 0.02646-0.39688-0.21167-4.6038-5.9002 0.92604-0.92604 0.13229-2.0108-3.519-3.3338 0.66146-0.13229 0.29104-0.10583 0.29104-0.18521 0.23812-0.29104 0.42333-1.0583 0.23812-0.23812 0.21167-0.10583 0.15875-0.18521 0.13229-2.884-0.05292-0.55562-0.23812-1.0319-0.05292-0.55562 0.15875-1.1642 0.02646-3.4925 0.05292-0.60854 0.60854-1.614 0.26458-2.0108 0.23812-0.635 1.2435-1.2965 0.3175-0.71438-0.47625-0.82021 1.3758-0.15875h3.2279l0.44979-0.07938 0.87312-0.37042 0.50271-0.07937z" name="Isabela" content="Talavera Group of Companies|SN ABOITIZ Power Magat" class="area-hover"/>
  <path d="m54.941 73.729 0.05292 0.55562 0.23812 1.0319 0.05292 0.55562-0.13229 2.884-0.15875 0.18521-0.21167 0.10583-0.23812 0.23812-0.42333 1.0583-0.23812 0.29104-0.29104 0.18521-0.29104 0.10583-0.66146 0.13229h-0.37042l-0.79375-0.07937-0.29104 0.05292-0.26458 0.55562-0.18521 0.21167-0.21167 0.07937-0.76729 0.18521-0.05292 0.23812-0.18521 0.07937-0.3175 0.02646-0.21167-0.05292-0.13229 0.10583-0.15875 0.47625 0.07937 0.39688-0.02646 0.23812-0.26458 0.42333-0.18521 0.52917-0.44979 0.37042h-0.05292l-0.29104 0.60854-0.3175 0.26458-1.1642 0.34396-9.1546 1.5875-0.29104-1.6933-0.07937-2.0902-0.26458-1.9579-0.76729-1.3494 0.50271-0.15875 0.89958 0.23812 0.47625-0.02646 0.44979-0.34396 0.26458-0.44979 0.23812-1.0848 0.52917-1.1642 0.97896-0.92604 1.1906-0.60854 1.2435-0.26458 2.5929 0.15875 0.84667-0.05292 0.635-0.18521 1.7198-0.9525 1.7727-0.66146 1.614-0.37042 1.6669-0.10583z" name="Ifugao"/>
  <path d="m55.126 69.072-0.02646 3.4925-0.15875 1.1642-1.8521-0.07937-1.6669 0.10583-1.614 0.37042-1.7727 0.66146-1.7198 0.9525-0.635 0.18521-0.84667 0.05292-2.5929-0.15875-1.2435 0.26458-1.1906 0.60854-0.97896 0.92604-0.52917 1.1642-0.23812 1.0848-0.26458 0.44979-0.44979 0.34396-0.47625 0.02646-0.89958-0.23812-0.50271 0.15875-1.1642-0.9525-0.47625-0.50271-0.47625-0.68792 0.39688-1.0848-0.02646-1.0583-0.18521-1.0583 0.02646-1.0583 0.26458-1.0054 0.52917-1.0583 0.74083-0.79375 1.0054-0.34396 0.60854-0.15875 0.29104-0.44979 0.21167-1.3229 4.9212 1.8521 2.7252 0.47625 2.0373-0.66146 1.9579-1.8785 1.1906-0.84667 1.0848-0.34396 0.42333 0.07938 1.0848 0.55562 1.8785 0.50271z" name="Mountain Province"/>
  <path d="m50.205 84.947 0.18521 0.34396 0.07937 0.87312-1.1642 5.8208 0.02646 0.39688 0.3175 0.44979 0.52917 0.3175 0.58208 0.13229 0.55562-0.02646-0.10583 1.0848-0.15875 0.52917-0.26458 0.34396-3.2544 1.8785-0.13229 0.23812 0.66146 3.466 0.26458 0.89958 0.39688 0.84667 3.0427 4.3127-4.9212 4.1804-0.44979-1.2171-1.1906-2.2225-0.34396-1.2435-0.10583-2.0638-0.15875-0.97896-0.47625-0.89958-0.82021-0.58208-1.1642-0.47625-2.2225-0.50271-0.87312-0.0265-1.0319 0.10583-0.92604 0.34396-0.635 0.58208-0.34396-1.2171-0.29104-0.58209-0.44979-0.3175-2.4871-0.74083-0.05292-0.84667 0.21167-0.89958 0.42333-0.79375 0.58208-0.635 0.44979-0.18521 0.68792 0.05292 0.44979-0.23812 0.47625-0.68792 0.47625-1.1377 0.3175-1.1906 0.07938-0.84667-0.10583-0.97896v-2.9104l9.1546-1.5875 1.1642-0.34396 0.3175-0.26458 0.29104-0.60854h0.05292l0.44979-0.37042 0.18521-0.52917 0.26458-0.42333 0.02646-0.23812-0.07937-0.39688 1.2171 1.4817z" name="Nueva Vizcaya"/>
  <path d="m52.877 86.799h1.4288l0.79375 0.52917 4.6038 5.9002 0.39688 0.21167 0.37042-0.02646 7.4083-3.1485-4.4979 6.4294-1.7462 1.7992-9.869 8.3608-3.0427-4.3127-0.39688-0.84667-0.26458-0.89958-0.66146-3.466 0.13229-0.23812 3.2544-1.8785 0.26458-0.34396 0.15875-0.52917 0.10583-1.0848-0.55562 0.02646-0.58208-0.13229-0.52917-0.3175-0.3175-0.44979-0.02646-0.39688 1.1642-5.8208 0.74083 0.44979 1.0583 0.18521z" name="Quirino"/>
  <path d="m27.106 137.97 0.02646 1.1112-0.26458 1.8256 0.07937 0.58208 1.0583 1.2171 0.10583 0.3175-0.13229 0.3175-0.05292 0.42333 0.50271 2.0108 0.13229 1.27-0.26458 1.0848-0.66146 0.74083-1.0319 0.18521-0.26458-0.0794-0.39688-0.15875-0.29104 0.0265-0.07938 0.10583-0.05292 0.21167-0.15875 0.18521-0.39688 0.0794-0.10583-0.0794-0.18521-0.42333-1.2435-0.37042-0.23812-0.10583-0.52917-0.68792-0.15875-0.79375 0.13229-1.6933-0.10583-0.9525-0.29104-0.52917-1.1112-0.74083-0.29104 0.15875-0.29104 0.0264-0.21167-0.13229-0.13229-0.23812h-0.18521l-0.87312-1.27-0.3175-0.87313 0.52917-0.39687 0.3175-0.10584-0.21167-0.21166-0.58208-0.34396 0.07937-0.3175 0.23812-0.23813 0.23812-0.23812 0.21167-0.23813 0.15875 0.0265 0.13229-0.10583 0.39688 0.10583 0.635-0.66146 0.58208-0.44979 0.66146-0.29104 0.87312-0.0794 0.66146-0.26459 0.52917-0.60854 0.37042-0.79375 0.13229-0.79374 0.26458 0.42332 0.15875 1.0583 0.21167 0.47625 0.39688 0.42333 0.97896 0.60854z" name="Bataan"/>
  <path d="m29.355 109.87 0.42333 3.0692 0.52917 1.4817 0.92604 1.0054 0.39688 0.10583 1.1112 0.0529 0.3175 0.15875v0.42334l-0.29104 0.42333-0.34396 0.42333-0.18521 0.42334v0.39687l0.13229 0.37042 0.15875 0.37042 0.10583 0.34395 0.02646 0.34396 0.02646 0.97896 0.15875 0.76729v0.34396l-0.26458 1.1377-0.07937 0.50271 0.05292 0.42333 0.15875 0.42333 0.39688 0.42334 0.34396 0.26458 0.13229 0.37042-0.15875 0.82021h-0.34396l-0.21167-0.1323-0.10583-0.1852-0.10583-0.0794-0.47625 0.0529-0.97896 0.26458-2.6194 0.18521-0.58208-0.0529-0.60854 0.10583-1.9315 0.66146-0.52917 0.26458-1.0848 1.0319-0.635 0.39687-0.60854 0.0529-0.84667-1.5875-0.50271-0.74083-0.635-0.635-0.9525-0.55563-2.1167-0.79375-0.87312-0.60854-0.52917-1.7992 0.68792-2.0902 2.1167-3.81 1.6404-0.82021 0.68792-0.635 0.68792-1.4817 0.47625-0.635 0.55562-0.37041 0.635 0.0794 1.2171 0.66145 0.37042 0.23813 0.39688 0.0794 0.44979-0.18521 0.79375-0.58208 0.71438-0.68792 0.39688-0.92604 0.29104-1.0054 0.37042-0.97896 0.21167 0.3175 0.21167 0.37042z" name="Tarlac"/>
  <path d="m46.844 111.03 2.5665 7.6465 0.18521 1.0583-0.05292 1.0054-0.92604 3.0427-0.82021 4.154-1.3758-0.0265-2.4077-1.7727-1.27-0.42333-1.1112 0.0794-3.81 1.0319-0.26458 0.10583-0.3175 0.0529-0.26458 0.10583-0.23812 0.68792-0.44979 0.39687-0.52917 0.21167-0.44979-0.0265-0.10583-0.18521v-0.47625l-0.05292-0.18521-0.23812-0.13229-0.47625-0.0794-0.23812-0.0794-0.39688-0.26458-0.29104-0.26458-0.13229-0.39688 0.05292-0.58208 0.15875-0.82021-0.13229-0.37042-0.34396-0.26458-0.39688-0.42333-0.15875-0.42334-0.05292-0.42333 0.07937-0.50271 0.26458-1.1377v-0.34396l-0.15875-0.76729-0.02646-0.97896-0.02646-0.34395-0.10583-0.34396-0.15875-0.37042-0.13229-0.37042v-0.39688l0.18521-0.42333 0.34396-0.42333 0.29104-0.42334v-0.42333l-0.3175-0.15875-1.1112-0.0529-0.39688-0.10583-0.92604-1.0054-0.52917-1.4817-0.42333-3.0692 2.9898-0.76729 0.84667 0.0265 0.39688 0.26458 0.3175 0.37042 0.47625 0.84666 0.34396 0.0529 0.39688-0.39687 0.37042-0.58209 0.21167-0.39687 0.44979-1.3229 0.21167-0.39687 0.26458-0.26459 0.23812-0.1852 0.23812-0.21167 0.21167-0.39688 0.18521-1.1642-0.23812-1.1906-0.82021-2.3019 0.635-0.58209 0.92604-0.34395 1.0319-0.10584 0.87312 0.0265 2.2225 0.50271 1.1642 0.47625 0.82021 0.58208 0.47625 0.89959 0.15875 0.97896 0.10583 2.0638 0.34396 1.2435 1.1906 2.2225z" name="Nueva Ecija"/>
  <path d="m33.43 125.72-0.05292 0.58209 0.13229 0.39687 0.29104 0.26458 0.39688 0.26459 0.23812 0.0794 0.47625 0.0794 0.23812 0.13229 0.05292 0.18521v0.47625l0.10583 0.18521 0.44979 0.0265 0.52917-0.21167 0.44979-0.39688 0.23812-0.68791 0.26458-0.10584 0.3175-0.0529 0.26458-0.10583-0.34396 0.74083-0.10583 0.42334-0.02646 0.37041 0.10583 0.21167 0.3175 0.29104 0.10583 0.15875 0.07937 0.47625-0.02646 0.44979-0.76729 2.3019-0.21167 0.39687-0.18521 0.10584-0.44979 0.10583-0.18521 0.13229 0.18521 0.13229 0.10583 0.15875-0.05292 0.21167-0.21167 0.21167-0.44979 0.23812-0.18521 0.21167-0.635 0.71437-2.0108 0.68792-0.82021 0.50271-0.23812 0.39687-1.0583 2.4077-0.39688 0.44979-0.23812-0.0529-0.37042-0.15875-0.26458-0.23812-0.10583-0.34396 0.02646-0.97896-0.05292-0.47625-0.15875-0.39687-0.05292 0.89958 0.05292 0.26458-0.37042 0.37042-0.10583-0.18521-0.07938-0.0265-0.21167 0.21167 0.34396-1.8785-0.13229-0.44979-0.42333-0.0529-0.23812 0.55563-0.10583 1.2435-0.55562-0.3175-0.21167 0.37041v0.29105l-0.3175-0.26459-0.97896-0.60854-0.39688-0.42333-0.21167-0.47625-0.15875-1.0583-0.26458-0.42333-0.74083-1.0583-0.13229-0.44979-0.05292-0.50271 0.05292-0.44979-0.05292-0.42333-0.26458-0.47625-0.44979-0.37042-0.42333-0.29104-0.34396-0.3175-0.26458-0.52917-0.05292-0.47625 0.05292-0.37042 0.18521-0.34395 0.3175-0.37042 0.60854-0.0529 0.635-0.39688 1.0848-1.0319 0.52917-0.26458 1.9315-0.66146 0.60854-0.10584 0.58208 0.0529 2.6194-0.1852 0.97896-0.26459 0.47625-0.0529 0.10583 0.0794 0.10583 0.18521 0.21167 0.13229zm-3.81 4.0746v-1.7727l-1.8521 0.0529-1.561 0.89958 1.1377 0.29104 1.0583 0.89959z" name="Pampanga"/>
  <path d="m35.467 80.608 0.76729 1.3494 0.26458 1.9579 0.07937 2.0902 0.29104 1.6933v2.9104l0.10583 0.97896-0.07938 0.84667-0.3175 1.1906-0.47625 1.1377-0.47625 0.68792-0.44979 0.23812-0.68792-0.05292-0.44979 0.18521-0.58208 0.635-0.42333 0.79375-0.21167 0.89958 0.05292 0.84667-1.561 0.34396-0.76729 0.05292-0.79375-0.13229-2.3548-0.97896-0.82021-0.15875-0.58208-1.4817-0.42333-1.7198-0.47625-3.4131 0.3175-1.4817 0.84667-1.4288 2.2225-2.4606 0.635-1.1906 0.52917-4.736 0.66146-1.0319 1.0054-0.21167 1.0848-0.05292 0.9525-0.44979 0.47625 0.68792 0.47625 0.50271zm-5.6356 11.8-2.2225-0.05292 0.58208 2.1431 1.8521 0.15875z" name="Benguet"/>
  <path d="m18.957 115.67-2.1167 3.81-0.68792 2.0902 0.52917 1.7992 0.87312 0.60854 2.1167 0.79375 0.9525 0.55563 0.635 0.635 0.50271 0.74083 0.84667 1.5875-0.3175 0.37042-0.18521 0.34396-0.05292 0.37041 0.05292 0.47625 0.26458 0.52917 0.34396 0.3175 0.42333 0.29104 0.44979 0.37042 0.26458 0.47625 0.05292 0.42333-0.05292 0.44979 0.05292 0.50271 0.13229 0.44979 0.74083 1.0583-0.13229 0.79374-2.884 0.0265-1.905-0.58208-1.9315 1.5081-0.34396 0.39688 0.13229 0.66145-0.10583 0.97896-0.29104 0.92604-0.3175 0.50271-0.37042 0.0265-0.50271-0.10583-0.42333-0.18521-0.18521-0.18521-0.13229-0.34396-0.71438-0.23812-0.26458-0.26459 0.21167-0.10583 0.15875-0.13229 0.07938-0.15875-0.02646-0.15875-0.42333 0.13229-0.635-2.1167-0.21167-1.0848 0.21167-2.5665-0.10583-1.1377-0.9525-4.0746-0.26458-0.26459-0.15875-0.10583-0.02646-0.29104 0.07938-0.47625v-0.635l-0.10584-0.23821-0.55562-0.84666-0.44979-0.9525-0.29104-0.42334-1.5346-1.561-0.23812-0.50271 0.05292-0.23812 0.39688-0.26458 0.10583-0.15875-0.05292-0.47625-0.13229-0.39688 0.50271 0.3175 0.55562-0.10583 0.44979-0.44979 0.18521-0.66146-0.05292-0.18521-0.29104-0.39688-0.13229-0.0794-0.07938-0.13229-0.05292-0.3175-0.13229-0.34396-0.21167-0.21167-0.18521 0.42334-0.50271-1.0848-0.05292-0.39687 0.05292-0.29104 0.37042-0.74084 0.13229-0.39687-0.07938-0.82021-0.47625-0.42333-0.55562-0.37042-0.39688-0.71437 0.60854-0.1323 0.13229-0.44979-0.15875-1.0848 0.87313 0.0794 0.68792-0.0794 0.60854-0.26458 1.1112-1.1906 0.635 0.0794 1.4023 0.74084 0.39688 0.0529 0.76729-0.0265 0.34396 0.0529 0.3175 0.29104 0.15875 0.44979 0.15875 0.89958 0.50271 1.0583 1.4288 2.1167z" name="Zambales"/>
  <path d="m28.482 86.138-2.2225 2.4606-0.84667 1.4288-0.3175 1.4817 0.47625 3.4131 0.42333 1.7198 0.58208 1.4817-0.44979 0.60854-0.79375 0.18521-1.6669-0.10583-0.47625-0.05292-0.10583-0.55562-0.34396-0.66146-0.87312-1.1377v0.58208l-0.13229-0.21167-0.34396-0.37042-0.66146-4.6831-0.34396-1.0583 0.21167-1.4552-0.23812-0.68792-0.37042-0.68792-0.23812-0.52917 0.26458-0.26458 0.07937 0.18521h0.50271v-0.18521l-0.15875-0.34396 0.02646-0.635 0.15875-0.635 0.50271-1.0054-0.07937-0.60854-0.18521-0.635-0.13229-0.60854 0.05292-0.635 0.05292-0.26458 0.10583-0.29104 0.18521-0.34396 0.42333-0.3175 0.23812-0.23812 1.2965-1.9579 0.39688 0.18521 0.47625 0.15875h0.42333l0.89958-0.18521 0.42333 0.13229 0.21167-0.07937 0.18521-0.10583 0.21167-0.05292 0.21167 0.15875 0.05292 0.34396-0.26458 1.0848-0.05292 0.39688 0.18521 0.44979 0.26458 0.3175 0.13229 0.3175-0.10583 0.44979 0.37042 0.13229 0.13229 0.42333v1.1906l-0.07937 0.50271 0.02646 0.21167 0.15875 0.37042 0.21167 0.29104z" name="La Union"/>
  <path d="m12.369 98.123-0.34396 0.05292-0.34396-0.26458-0.10583-0.23812-0.55562-0.42333-0.52917-0.74083-0.3175-0.21167-0.07937-0.23812 0.13229-0.26458 0.42333-0.44979 0.50271-0.15875 0.10583-0.26458 0.21167-0.18521 0.3175 0.05292 0.18521 0.15875 0.39688 0.89958-0.02646 1.2171 0.15875 0.39688 0.05292 0.37042zm6.8792 5.1065 1.0583 1.9844 1.2171-0.3175 1.6933-1.3758-0.18521-0.84667-0.84667-1.0583 0.26458-0.42333 0.10583-0.29104 0.52917-0.55563 0.10583-0.34396v-1.2435l0.47625 0.05292 1.6669 0.10583 0.79375-0.18521 0.44979-0.60854 0.82021 0.15875 2.3548 0.97896 0.79375 0.13229 0.76729-0.05292 1.561-0.34396 2.4871 0.74083 0.44979 0.3175 0.29104 0.58208 0.34396 1.2171 0.82021 2.3019 0.23812 1.1906-0.18521 1.1642-0.21167 0.39688-0.23812 0.21166-0.23812 0.18521-0.26458 0.26459-0.21167 0.39687-0.44979 1.3229-0.21167 0.39687-0.37042 0.58209-0.39688 0.39687-0.34396-0.0529-0.47625-0.84666-0.3175-0.37042-0.39688-0.26458-0.84667-0.0265-2.9898 0.76729-0.29104-0.76729-0.21167-0.37042-0.21167-0.3175-0.37042 0.97896-0.29104 1.0054-0.39688 0.92605-0.71438 0.68791-0.79375 0.58209-0.44979 0.1852-0.39688-0.0794-0.37042-0.23812-1.2171-0.66146-0.635-0.0794-0.55562 0.37042-0.47625 0.635-0.68792 1.4817-0.68792 0.635-1.6404 0.82021-0.39688-1.0583-1.4288-2.1167-0.50271-1.0583-0.15875-0.89958-0.15875-0.4498-0.3175-0.29104-0.34396-0.0529-0.76729 0.0265-0.39688-0.0529-1.4023-0.74083-0.635-0.0794-1.1112 1.1906-0.60854 0.26459-0.68792 0.0794-0.87313-0.0794v-0.10583l0.07938-0.50271 0.13229-0.39688 0.05292-0.44979-0.07937-0.60854-0.44979-1.1377-0.3175-0.58208-0.37042-0.39688-0.68792-0.1852-0.44979 0.39687-0.3175 0.42333-0.42333-0.0529-0.39688 0.37042-0.39688-0.82021 0.05292-3.2544 0.05292-0.47625 0.42333-1.2171 0.07938-0.55562-0.07938-0.26459-0.39688-0.42333-0.07937-0.29104-0.05292-0.89958 0.05292-0.37042 0.50271-1.8256 0.15875-1.1642 0.23812-0.58208 0.29104-0.44979 0.29104-0.26458 0.13229-0.02646 0.3175 0.05292 0.10583-0.02646 0.58208-0.39688 0.44979-0.10583 0.58208-0.07937 0.68792 0.18521 0.23813 0.47625v0.55562l-0.635 2.6723 0.34396 0.23812 1.2435 0.3175 0.26458 0.15875 0.18521 0.21167 0.76729 0.87312 0.29104 0.18521 0.60854-0.02646 0.34396 0.05292 0.3175 0.21167 0.50271 0.52916 0.21167-0.0794 0.07938 0.10584 0.26458 1.8256 0.13229 0.55563 0.37042 0.39687 0.52917 0.29105 1.27 0.34395 0.635 0.0265 0.58208-0.13229 0.50271-0.3175z" name="Pangasinan"/>
  <path d="m39.939 150.11 0.07937 0.26458-0.07937 0.79375v0.87313l0.26458 0.15875 0.3175-0.0529 0.34396-0.10583 0.37042 0.0265 0.34396 0.3175-0.13229 0.47625-0.34396 0.55562-0.26458 0.60854 0.26458 0.47625-0.79375 1.9315 0.13229 0.79375-0.23812 0.50271-1.1112 0.60854-1.3494 0.52917-0.97896 0.21167-0.79375 0.0794-0.23812-0.0529-0.44979-0.26458-0.79375-0.635-0.13229-0.0265-0.42333 0.0265-0.18521-0.0265-0.21167-0.13229-0.47625-0.34396-0.26458-0.15875-0.23812-0.0529-0.47625-0.0529-0.26458-0.0794-0.3175-0.21166-0.3175-0.3175-0.21167-0.3175v-0.635l-0.23812-0.3175-0.37042-0.23813-0.37042-0.10583-0.44979 0.0529-0.29104 0.13229h-0.34396l-0.39688-0.26459 0.44979-0.52916 0.23812-0.44979 0.15875-0.4498 0.42333-0.21166 1.1112-0.21167 0.39688-0.15875 0.42333-0.23812 0.3175-0.3175 0.15875-0.34396 0.13229-0.15875 0.66146-0.26459 0.23812-0.15875 0.58208-0.92604 2.4077-2.3548 0.21167-0.10583 0.3175-0.0265 0.58208 0.0529 0.21167-0.0794 0.44979-0.52917 0.47625-0.34395 0.34396 0.5027 0.07937 0.79375 0.34396 0.23813 0.66146 1.1112z" name="Cavite" name="Cavite" content="Southeast Asian Medical Center|United Graphic Expression Corp" class="area-hover"/>
  <path d="m41.87 173.37 0.15875 0.23812 0.07938 0.71438-0.15875 0.1852-0.44979-0.15875-0.76729-0.71437v-0.15875l0.21167-0.0265 0.18521 0.0794 0.23812-0.0529 0.29104-0.13229zm-4.445-1.6404-0.34396 0.0529-0.9525-0.21167-0.9525-0.58208-0.10583-0.15875-0.23812-0.635 0.02646-0.18521 0.29104 0.37041 0.18521 0.15875 1.0054 0.34396 0.74083 0.0265 0.47625 0.0265 0.23812 0.15875-0.02646 0.39687zm3.0162-14.499 1.1112-0.13229h1.5346l1.4023 0.29104 0.66146 0.76729 0.50271 2.9898 0.29104 0.29104 0.44979 0.0794 0.34396 0.21167 0.02646 0.66146 0.23812 0.37041 0.66146 0.42334 0.23812 0.3175 0.18521 0.42333 0.18521 0.23813 0.635 0.39687 1.4288 1.1906 0.42333 0.13229h0.39688l0.37042 0.13229 0.34396 0.23812 0.07937 0.1323-0.55562 0.635 0.18521 1.9844-0.13229 0.71438h0.26458l0.50271 0.1852-0.82021 0.87313-0.10583 0.18521-1.1377-0.29104h-0.37042l-0.52917 0.29104-1.561 1.1642-0.52917 0.58209-0.42333-0.15875-0.39688-0.23813-0.10583-0.10583-0.74083-0.29104-0.37042-0.0794-0.47625-0.0265-0.23812-0.0794-0.23812-0.15875-0.29104-0.13229h-0.44979l-0.87312 0.18521-0.44979 0.1852-0.37042 0.21167-0.26458-0.10583-0.635-0.13229-0.23812-0.15875-0.13229-0.23813 0.26458-0.3175 0.07937-0.3175 0.05292-0.68792 0.10583-0.47625 0.02646-0.47625-0.37042-1.0054-0.10583-0.13229-0.52917-0.34396-0.34396-0.15875-0.34396-0.0794-0.29104 0.0794-2.1167 2.4606-0.23812 0.15875-0.18521-0.15875-0.15875-0.34396-0.02646-0.3175 0.10583-0.15875 0.23812-0.13229 0.13229-0.3175 0.10583-0.34396 0.10583-0.13229 0.34396-0.0529 0.18521-0.1323 0.10583-0.23812v-0.37042l-0.44979-0.44979-0.10583-0.13229v-0.34396l0.13229-0.58208 0.02646-0.3175v-0.44979l-0.07937-0.47625-0.15875-0.42334-0.3175-0.29104-0.47625-0.15875-2.4606-0.3175-1.1377-0.29104h-0.60854l-0.50271 0.18521-0.21167 0.37041 0.10583 0.50271 0.37042 0.55563 0.23812 0.60854-0.52917 0.10583-1.1377-0.21166-0.26458 0.37041 0.10583 0.52917 0.23812 0.58208 0.13229 0.55563-0.18521 0.3175-0.37042-0.26459-0.58208-0.74083-0.21167-1.0054-0.05292-2.3812-0.47625-1.0583 0.42333-0.0794 0.34396-0.26459 0.15875-0.29104-0.10583-0.13229-0.3175-0.18521-0.05292-0.42333 0.10583-1.6669-0.05292-0.76729-0.3175-0.58208-0.76729-0.23813v-0.21166l0.42333-0.21167 0.05292-0.23813-0.23812-0.26458-0.42333-0.23812h0.26458l0.18521-0.0529 0.3175-0.13229v-0.21167l-0.37042-0.3175 0.23812-0.52917 0.39688 0.26459h0.34396l0.29104-0.13229 0.44979-0.0529 0.37042 0.10583 0.37042 0.23813 0.23812 0.3175v0.635l0.21167 0.3175 0.3175 0.3175 0.3175 0.21166 0.26458 0.0794 0.47625 0.0529 0.23812 0.0529 0.26458 0.15875 0.47625 0.34396 0.21167 0.13229 0.18521 0.0265 0.42333-0.0265 0.13229 0.0265 0.79375 0.635 0.44979 0.26458 0.23812 0.0529 0.79375-0.0794 0.97896-0.21167 1.3494-0.52917 1.1112-0.60854z" name="Batangas" content="IM Digitrals Phils., Inc," class="area-hover"/>
  <path d="m47.797 127.94 0.21167 0.79375-0.02646 0.55563-0.42333 1.2171v0.47625l0.29104 0.42333 0.71438 0.74084 0.18521 0.97896 0.13229 3.0692-0.92604-0.0265-0.58208 0.52917-0.50271 0.66145-0.68792 0.42334-1.0319 0.21166-0.50271 0.74084-0.55562 0.71437-0.34396 0.44979-0.68792-0.0794-0.15875 0.21167-0.18521 0.0264-0.21167 0.0265-1.3758-0.42333-0.47625 0.0794-0.26458 0.42334-0.60854 0.26458-0.29104 0.13229-0.23812 0.55563-0.60854 0.23812-0.37042-0.39687h-0.58208l0.58208 0.89958 0.02646 0.29104-0.55562-0.39687-0.34396-0.23813-0.15875 0.21167-0.23812-0.37042-0.13229-0.34396-0.21167-0.15875-1.2965-0.52916-0.07937-0.15875-0.02646-0.18521-0.07938-0.15875-0.29104-0.0529-2.6723-0.10583-1.6933-0.29104-0.15875-0.0529 0.39688-0.44979 1.0583-2.4077 0.23812-0.39687 0.82021-0.50271 2.0108-0.68791 0.635-0.71438 0.18521-0.21167 0.44979-0.23812 0.21167-0.21167 0.05292-0.21166-0.10583-0.15875-0.18521-0.1323 0.18521-0.13229 0.44979-0.10583 0.18521-0.10583 0.21167-0.39688 0.76729-2.3019 0.02646-0.4498-0.07937-0.47625-0.10583-0.15875-0.3175-0.29104-0.10583-0.21166 0.02646-0.37042 0.10583-0.42333 0.34396-0.74084 3.81-1.0319 1.1112-0.0794 1.27 0.42333 2.4077 1.7727z" name="Bulacan" content="Luzon Alliance Medical Center" class="area-hover"/>
  <path d="m46.765 162.39-0.02646-0.66146-0.34396-0.21167-0.44979-0.0794-0.29104-0.29104-0.50271-2.9898-0.66146-0.76729-1.4023-0.29104h-1.5346l-1.1112 0.13229-0.13229-0.79375 0.79375-1.9315-0.26458-0.47625 0.26458-0.60854 0.34396-0.55562 0.13229-0.47625-0.34396-0.3175-0.37042-0.0265-0.34396 0.10583-0.3175 0.0529-0.26458-0.15875v-0.87313l0.37042-0.10583 0.29104-0.26458 0.37042-0.21167 0.23812 0.0265 0.15875-0.15875 2.0902-0.10583-0.23812-1.8521-0.26458-2.0108 0.15875-0.0529h0.23812l0.3175 0.21167 0.58208 0.47625 0.89958 2.3283 0.26458 1.0319 0.3175 1.7992 0.42333 0.50271 0.26458-0.39687 0.07937-0.58209 0.21167-0.37041-0.26458-0.29104-0.42333-0.9525-0.07937-1.0583v-1.0319l0.34396-0.97896 0.37042-0.3175 0.44979 0.13229 0.23812 0.55563 0.23812 0.15875 0.23812 0.10583 0.29104 0.18521 0.26458 0.21166 0.18521 0.3175 0.10583 0.34396 0.10583 0.74084-0.10583 0.74083-0.37042 1.27-0.39688 0.71437 0.07937 0.82021 1.0319-0.79375 1.1377-0.74083-0.44979-0.66146 0.07938-0.79375-0.42333-1.9579 0.21167-0.97895 0.50271-0.87313 1.1642-0.68792 0.89958-0.42333 0.97896 1.4817 0.68792 1.3229 1.8785 4.4715 0.18521 0.89959 0.07937 0.89958-0.15875 0.84667-0.37042 0.58208-0.44979 0.52917-0.39688 0.66145-0.50271 1.27-0.3175 0.58209-0.44979 0.44979-0.60854 0.26458-1.1906 0.13229-0.58208 0.29105-1.9844 1.4023z" name="Laguna" content="Sta. Cruz Water District" class="area-hover"/>
  <path d="m48.882 136.2 0.10583 2.7252 0.23812 1.2964 0.52917 1.2436 2.3812 3.7306-0.89958 0.42333-1.1642 0.68792-0.50271 0.87313-0.21167 0.97895 0.42333 1.9579-0.07938 0.79375 0.44979 0.66146-1.1377 0.74083-1.0319 0.79375-0.07937-0.82021 0.39688-0.71437 0.37042-1.27 0.10583-0.74083-0.10583-0.74084-0.10583-0.34396-0.18521-0.3175-0.26458-0.21166-0.29104-0.18521-0.23812-0.10583-0.23812-0.15875-0.23812-0.55563-0.44979-0.13229-0.37042 0.3175-0.34396 0.97896v1.0319l0.07937 1.0583 0.42333 0.9525 0.26458 0.29104-0.21167 0.37041-0.07937 0.58209-0.26458 0.39687-0.42333-0.50271-0.3175-1.7992-0.26458-1.0319-0.89958-2.3283-0.58208-0.47625-0.3175-0.21167h-0.23812l-0.15875 0.0529-0.18521-0.66146 0.15875-0.23812-0.13229-0.23813 0.13229-0.26458 0.05292-0.55563-0.21167-0.39687 0.10583-0.34396 0.23812-0.18521 0.44979 0.0794 0.13229-0.60855-0.05292-0.26458-0.66146-0.21167 0.13229-0.74083 0.42333-0.82021-0.26458-0.21166 0.02646-0.37042 0.15875-0.10583 0.29104-0.4498 0.34396-0.44979 0.55562-0.71437 0.50271-0.74084 1.0319-0.21166 0.68792-0.42334 0.50271-0.66145 0.58208-0.52917z" name="Rizal"/>
  <path d="m63.804 173.82 0.58208 0.89958 0.13229-0.15875 0.29104-0.29104 0.13229-0.15875 0.42333 0.44979 0.635 0.13229 0.55562-0.18521 0.26458-0.55562 0.34396 0.23812 0.26458 0.23813 0.07937 0.29104-0.13229 0.39688 0.42333-0.15875 0.29104 0.15875 0.10583 0.29104-0.23812 0.26458 0.10583 0.10583 0.44979 0.26459 0.39688-0.26459 0.60854 0.15875 0.50271 0.42334 0.18521 0.47625-0.10583 0.13229-0.44979 0.0529-0.02646 0.21166 0.02646 0.47625 0.10583 0.23813 0.47625 0.37041 0.15875 0.23813-0.23812 0.84667-1.5875 1.614-0.60854 0.82021 0.23812 0.60854-0.23812 0.47625-0.84667 0.74084-0.42333 0.0794-0.44979-0.3175-0.39688-0.42333-0.23812-0.21167-0.29104-0.13229-0.92604-0.82021-0.23812-0.0529-0.47625-0.0529-0.21167-0.0794-0.29104-0.23812-0.47625-0.71438-0.82021-0.89958-0.10583-0.29104 0.13229-0.66146-0.10583-0.60854v-1.4817l0.07937-0.39687 0.18521-0.26459 0.74083-1.3229 0.07937-0.26459 0.05292-0.79375 0.07937-0.1852 0.39688-0.0794z" name="Marinduque"/>
  <path d="m43.034 212.93-0.23812 0.0529-0.29104-0.13229-0.23812-0.18521-0.26458-0.13229-0.18521-0.26458-0.10583-0.39688-0.26458-0.37042-0.50271-0.26458-0.3175-0.87312 0.55562-0.74084 0.76729 0.3175 0.26458 0.635 0.21167 0.92604 0.13229 0.21167 0.15875 0.18521 0.3175 0.60854 0.07937 0.29104zm-6.4029-37.677 0.02646 0.15875 0.13229 1.4023v0.71437l-0.21167 0.58209-3.0692 4.1275 11.351 5.0006 1.0319 0.60854 0.42333 0.68792v22.728l-0.07937 0.13229-0.39688 0.0265-0.635-0.60854-0.37042-0.15875h-1.6933l-0.50271-0.26459-0.39688-0.66145-0.15875-0.82021 0.21167-0.74084 0.15875 0.4498 0.26458 0.26458 0.3175 0.0265 0.39688-0.18521-0.21167-0.0794h-0.18521l-0.18521 0.0794-0.18521-0.55563-0.55562-0.42333-0.18521 0.0529v0.55562l-0.44979-0.23812-0.55562-0.47625-0.47625-0.52917-0.34396-0.60854-0.68792-0.66146-0.23812-0.0794-0.15875-0.18521-1.1377-1.9844-0.37042-0.21166-0.26458-0.3175 0.07937-0.66146 0.29104-1.1642-0.05292-0.55562-0.15875-0.52917-0.26458-0.50271-0.71438-0.84667-0.47625-0.97895-0.37042-0.42334-0.60854-0.26458h-0.55562l-0.39688-0.13229-0.13229-0.66146-0.05292-0.3175-0.13229-0.52917-0.02646-0.3175-0.07937-0.3175-0.47625-0.71437 0.05292-0.26459 0.23812-0.34395 0.10583-0.15875v-0.26459l-0.07937-1.3494-0.23812-0.87313-0.26458-1.5346-0.47625-0.87313-1.1906-1.6669-0.87312-1.7727-0.635-0.76729-1.2965-0.44979-0.50271-0.635-0.44979-0.18521-0.9525 0.0794-0.26458-0.13229 0.3175-0.52916-0.74083-0.68792-0.52917-0.79375-0.34396-0.89958-0.21167-1.9579-0.21167-0.47625-0.34396-0.18521h-0.18521l-0.47625 0.10583-0.18521 0.0794-0.23812 0.15875-0.3175 0.42333-0.55562 0.44979-0.3175 0.0794-0.44979-0.15875-0.34396-0.29104-0.29104-0.39688-0.18521-0.47625-0.07937-0.44979 0.10583-0.635 0.29104-0.60854 0.44979-0.47625 0.50271-0.37042 0.66146-0.23812 0.60854-0.0265 1.8785 0.44979 1.6404 0.0794 0.37042-0.0529 0.26458-0.0794 0.29104 0.0265 0.52917 0.3175 0.29104 0.0794 0.52917 0.0794 1.0583-0.0265 0.635 0.10584 0.37042 0.3175 0.44979-0.23813 0.34396 0.13229 0.50271 0.47625 0.44979 0.0529 0.42333-0.10583 0.82021-0.3175 2.4077-0.55563zm-19.923-9.3133 0.10583 0.3175 0.39688-0.13229 0.52917 0.10584 0.55562 0.26458 0.39688 0.3175 0.9525 1.4552-0.13229 0.3175-0.26458 0.23812-0.13229 0.23813 0.23812 0.37041 0.21167 0.10584 0.21167 0.0529 0.15875 0.0794 0.07938 0.3175-0.47625 0.37042-0.10583 0.13229-0.18521-0.23813-0.18521-0.3175-0.21167-0.29104-0.23812-0.13229-0.39688-0.0794-0.15875-0.1852-0.10583-0.26459-0.18521-0.23812-0.29104-0.18521-0.26458-0.13229-0.29104-0.0529-0.37042-0.0265-0.15875-0.0794-0.3175-0.39688-0.89958-0.29104-0.44979-0.50271-0.23812-0.635-0.07938-0.68791 0.02646-0.3175 0.13229-0.21167 0.18521-0.13229 0.29104-0.0265 0.39688 0.15875 0.68792 0.34396z" name="Mindoro Occidental"/>
  <path d="m46.315 211.26v-22.728l-0.42333-0.68792-1.0319-0.60854-11.351-5.0006 3.0692-4.1275 0.21167-0.58209v-0.71437l-0.13229-1.4023-0.02646-0.15875 0.58208-0.34396 0.37042 0.3175 0.23812-0.0529 0.21167-0.15875 0.13229-0.50271 0.39688 0.10584 0.37042-0.10584 0.02646 0.10584 0.15875 0.10583-0.13229 0.23813-0.15875 0.1852-0.21167 0.10584-0.23812 0.0265 0.15875 0.26458 0.26458 0.3175 0.3175 0.29104 0.29104 0.10583 0.23812 0.23813 0.635 1.0848 0.42333 0.23813 1.7992-0.0794 0.44979 0.3175-0.10583 0.89958h0.18521l0.13229-0.60854 0.05292-0.15875 0.18521-0.21166 0.21167-0.15875 0.26458-0.1323 0.34396-0.10583 0.3175-0.18521 0.18521-0.37041h0.18521l0.58208 1.0319 3.175 2.6458 1.1377 1.8256 0.44979 0.26458 0.58208 0.0794 0.47625 0.23812 0.26458 0.42334 0.07937 0.60854-0.07937 0.29104-0.13229 0.29104-0.07937 0.3175 0.07937 0.26458 0.3175 0.21167 0.3175-0.0265 0.3175-0.10583 0.29104-0.0794 0.635 0.0265 0.60854 0.13229 0.47625 0.29105 0.23812 0.52916-0.10583 0.58209-0.37042 0.39687-0.92604 0.635-0.34396 0.47625-0.15875 0.60854-0.02646 0.68792 0.26458 1.7198v0.44979l-0.23812 1.1642 0.02646 0.37042h-0.18521l0.15875 0.76729 0.05292 1.7462 0.26458 0.66146 0.76729 0.9525 0.07937 0.1852 0.05292 0.34396 0.07937 0.44979 0.15875 0.4498 0.26458 0.44979 0.02646 0.21166-0.05292 0.71438-0.18521 0.0529-0.15875 0.10583-1.0848 1.561-0.3175 0.29104-0.66146 0.44979-0.21167 0.0794-0.3175-0.0265-0.05292 0.23813 0.02646 0.47625 0.05292 0.1852 0.13229 0.21167-0.21167 0.21167-0.15875-0.21167-0.15875 0.3175 0.02646 0.18521 0.13229 0.26458-0.50271 0.3175 0.02646 0.76729 0.34396 0.87313 0.50271 0.52917v0.1852l-1.1112-0.3175-0.50271 0.0529-0.07938 0.47625 0.15875 0.18521 0.05292 0.23812-0.05292 0.26459-0.15875 0.26458 0.23812 0.10583 0.10583 0.15875 0.05292 0.21167v0.29104l-0.82021-0.50271-0.3175-0.44979-0.39688 0.18521-0.635 0.58208-0.37042 0.0794-0.3175 0.21167-0.50271 0.47625z" name="Mindoro Oriental"/>
  <path d="m71.715 161.09-0.52917 0.0265-0.60854-0.37042-1.0054-0.87312-1.7992-1.1642-1.0848-1.0054-0.3175-0.15875-0.44979-0.26458-0.52917-0.66146-0.44979-0.71437-0.15875-0.47625 0.07937-0.37042 0.21167-0.23813 0.29104-0.0794 0.34396 0.0794 0.18521 0.10584 0.3175 0.44979 3.519 3.0427 1.2171 0.82021 0.635 0.55562 0.29104 0.635zm5.3975-19.024-0.58208 0.0529-0.92604-0.10583-0.07937-0.42333 0.66146-0.39688 0.635-0.21166 0.44979-0.23813 0.44979-0.10583 0.39688 0.18521 0.18521 0.15875 0.02646 0.42333-0.58208 0.55562zm-6.4558-4.445 0.21167 0.15875 0.29104-0.0265 0.34396-0.13229h0.92604l-0.18521 0.18521-0.10583 0.21166-0.02646 0.29104 0.13229 0.3175 0.26458 0.18521 0.29104 0.0529 0.50271-0.0794 0.34396 0.26459 0.23812 0.60854v0.58208l-0.39688 0.29104-0.02646-0.13229-2.1431-1.614-0.74083-0.13229-0.39688-0.13229-0.15875-0.21167-0.10583-0.3175-0.18521-0.34395 0.02646-0.15875 0.44979 0.13229 0.37042-0.37042zm-4.6302-5.9002 0.42333 0.26459 0.23812-0.13229 0.3175 0.13229 0.15875 0.3175-0.15875 0.47625 0.66146 0.0265 0.50271 0.29104 0.26458 0.44979-0.10583 0.58208-0.60854-0.71437-0.29104-0.15875-0.42333 0.0794-0.26458 0.29104-0.07937 0.3175 0.10583 0.15875 0.23812-0.15875 0.21167 0.68792v0.34396l-0.26458 0.21166-0.87312 0.55563-0.07937 0.0794 0.02646 0.13229 0.05292 1.0054 0.05292 0.29104 0.13229 0.37042 0.50271-0.0529 0.34396 0.44979 0.18521 0.71438 0.26458 1.7992-0.05292 0.37042-0.52917 1.4023-0.52917 0.47625-0.635 0.34396-0.58208 0.10583-0.635-0.23812-0.23812-0.60854 0.05292-0.76729 0.15875-0.68792 0.50271-0.10583-0.02646-1.1112-0.37042-1.27-0.58208-0.60855-0.39688-0.13229-0.13229-0.34396 0.07937-1.0054-0.13229-0.29104-0.58208-0.92605-0.23812-0.23812-0.42333-0.15875-0.26458 0.0265-0.10583-0.15875 0.21167-1.8785 0.18521-0.66146 0.3175-0.29104 0.82021 0.50271 0.52917 0.10583 0.23812-0.50271 0.21167-0.23812 0.47625-0.0529zm-14.288-4.5244 0.60854 0.3175 0.34396 0.39687 0.15875 0.52917 0.58208 2.8575 0.18521 0.3175 0.34396 0.29104 0.87312 1.4552 0.18521 0.47625 0.10583 0.76729 0.3175 0.74083 0.42333 0.68792 0.47625 0.635-0.55562 0.37041 1.1377 1.3494 0.15875 0.3175 0.21167 0.23812 1.7198 1.3494 0.34396 0.39687 0.02646 0.29105-0.52917 0.13229-0.97896 0.0265-0.60854 0.10583-0.52917 0.23812-0.42333 0.34396-0.15875 0.44979v1.2436l0.07937 0.5027 0.97896 3.3867 0.13229 1.0319 0.29104 1.0848 0.21167 0.44979 0.34396 0.44979 1.1642 1.1112 0.26458 0.50271 0.02646 0.37042-0.10583 0.97895 0.10583 0.21167 0.50271 0.47625 0.13229 0.26458-0.05292 0.4498-0.13229 0.42333-0.23812 0.34396-0.3175 0.23812v0.18521l0.34396 0.3175 0.97896 1.4288 1.8256 1.3494 1.905 1.9579 0.52917 0.39688 4.1275 1.614 3.9423 0.87312 0.05292-0.74083-0.3175-0.52917-1.0583-1.0319 0.52917-0.15875 2.4871 0.68791 0.13229-0.0794 0.05292-0.37042-0.10583-0.47625 0.07937-0.13229 0.39688-0.0794v-0.1852l-0.635-0.18521-1.0583-1.2435-0.44979-0.3175-0.74083-0.23813-0.60854-0.66146-0.44979-0.82021-0.18521-0.79375 0.29104 0.21167 0.05292 0.13229 0.05292 0.26459h0.15875l0.02646-0.66146 0.3175-0.39688 0.97896-0.50271 0.34396 0.15875 0.07937-0.47625 0.02646-0.66145 0.10583-0.39688 0.3175 0.0794 0.07937 0.55562-0.07937 0.68792-0.10583 0.42333 0.18521 0.26458 0.05292 0.34396 0.02646 0.37042 0.07937 0.37042 0.02646 0.23812 0.18521 0.15875 0.10583 0.0265 0.13229-0.13229 0.13229-0.29104 0.13229 0.3175 0.05292 0.34395v0.71438l0.26458-0.13229-0.02646 0.47625 0.55562 0.0529 0.76729-0.29104 0.52917-0.34396 0.76729-0.74083 0.42333-0.34396 0.42333-0.26458 0.635-0.15875 0.55562 0.0794 9.181 4.445-1.6669 0.39688-3.81 0.42333-1.4817 0.76729-0.07938 0.10584-0.05292-0.13229-0.34396-0.42334-0.18521-0.23812-0.55562 0.76729-1.561-0.10583-0.66146-0.23813-0.50271-0.42333-0.10583 0.37041 0.21167 0.4498 0.37042 0.37041 0.37042 0.13229 0.07938 0.23813 1.3494 1.905 0.26458 0.50271-0.02646 0.34396-0.15875 0.42333 0.02646 0.58208 0.23812 1.0319-0.60854-0.13229-0.13229 0.52916 0.15875 1.2435 0.18521 0.71438 0.42333 0.60854 1.0054 0.97896 1.9579 1.1906 0.39688 0.4498-0.10583 0.47625-0.635-0.3175-1.1642-0.89959 0.15875 0.42334 0.71438 1.1377 1.2171 1.4288 0.29104 0.47625 0.26458 0.55563 0.23812 1.1642 0.13229 1.0319v1.1642l0.05292 0.3175 0.23812 0.37041 0.07938 0.18521 0.05292 0.58209v0.34395l-0.05292 0.23813-0.15875 0.0794-0.47625 0.21167-0.10583 0.18521-0.29104 0.29104-0.60854 0.37042-0.71438 0.29104-0.44979 0.10583-0.47625-0.3175-1.7992-1.5346 0.07937-0.55563 0.29104-1.0054 0.02646-0.42334-0.50271-1.614-2.6723-3.5983-0.07937-0.21166-0.05292-0.34396-0.07937-0.21167-0.52917-0.50271-0.18521-0.23812-0.76729-0.3175-0.15875-0.39688-0.44979-0.47625h-1.6404l0.02646-0.39687-0.50271-0.15875-0.92604-0.0794-0.37042-0.23812-0.10583-0.23813-0.10583-0.47625-0.15875-0.23812-0.21167-0.29104-1.4817-2.3812-0.68792-0.82021-0.89958-0.66146-0.18521 0.52917-0.39688-0.10584-0.47625-0.39687-0.34396-0.21167-0.52917 0.0265-0.10583-0.0529-0.97896-0.92604-0.34396-0.18521-0.34396-0.10583-0.3175-0.0529-0.26458-0.10583-0.58208-0.47625-0.3175-0.23813-0.29104-0.15875-0.89958-0.21166-0.37042-0.44979-0.3175-0.50271-0.42333-0.44979h-0.23812l-1.0319-0.37042-0.39688-0.18521-0.18521 0.37042-0.47625 0.3175-0.10583 0.37041-0.21167 0.15875-1.2965 0.3175-0.13229 0.1323-1.5081-2.4342-2.2754 1.0848 1.3758 2.2225-0.50271 0.39688-0.39688 0.13229-0.58208 0.0529-0.29104 0.18521-0.82021 0.89959-0.07937-0.1323-0.34396-0.23812-0.37042-0.13229h-0.39688l-0.42333-0.13229-1.4288-1.1906-0.635-0.39687-0.18521-0.23813-0.18521-0.42333-0.23812-0.3175-0.66146-0.42334-0.23812-0.37041 2.1696-1.1112 1.9844-1.4023 0.58208-0.29105 1.1906-0.13229 0.60854-0.26458 0.44979-0.44979 0.3175-0.58209 0.50271-1.27 0.39688-0.66145 0.44979-0.52917 0.37042-0.58208 0.15875-0.84667-0.07937-0.89958-0.18521-0.89959-1.8785-4.4715-0.68792-1.3229-0.97896-1.4817-2.3812-3.7306-0.52917-1.2436-0.23812-1.2964-0.10583-2.7252-0.13229-3.0692-0.18521-0.97896 0.34396 0.10583h0.37042l-0.02646-0.74083 0.50271-0.68792 0.55562-0.66146 0.29104-0.71437-0.05292-0.26459-0.18521-0.66145-0.15875 0.10583-0.15875-0.10583 0.07937-0.18521 0.3175-0.13229 0.13229-0.50271 0.15875-0.34396 0.29104-0.18521 0.47625 0.0529z" name="Quezon"/>
  <path d="m126.48 206.02-0.34396 0.23812-0.55562-0.44979-0.3175-0.635-0.0794-0.635-0.0264-0.3175 0.26458 0.0794 0.47625 0.34396 0.44979 0.66145zm31.009 2.9369-0.50271 0.3175-0.68792 0.18521-0.44979-0.635-0.68791-1.614-0.60855-0.34395-0.55562 0.29104-0.44979 0.635-0.29104 0.76729-0.34396 0.3175-0.42334 0.18521-0.89958 0.21166-0.58208 0.0265-0.26459 0.0529-0.23812 0.21167-0.34396 0.44979-0.21167 0.15875-0.29104 0.0794-0.76729 0.0794-2.0902-0.15875-0.68791 0.0265-0.4498 0.21166-0.42333 0.3175-0.60854 0.3175-0.66146 0.0265-0.60854-0.3175-0.60854-0.39687-0.60854-0.18521-0.3175 0.0529-0.3175 0.15875-0.58209 0.34396-0.50271 0.23813h-0.34395l-0.82021-0.55563-4.445-2.249-0.44979-0.0264-0.34396 0.39687-0.37042 0.47625-0.44979 0.23813-1.561 0.0529-0.76729-2.6988-1.7992-4.1275-0.0794-0.37041 0.0794-0.3175 0.18521-0.34396 0.26458-0.26459 0.3175-0.0794 0.21167 0.0794 1.27 0.97896 0.39687 0.0529 0.68792-0.34396 0.23812-0.0529 0.15875 0.0529 0.68792 0.34396 0.44979 0.13229 1.7198 0.0265 0.39688 0.23812 0.13229 0.18521 0.39688-0.21166 0.635 0.0529 0.58208 0.13229 2.2754 0.21167 5.1594-0.42333 0.23813-0.0794 0.26458-0.18521 0.23812-0.39687-0.15875-0.26458-0.26458-0.23813-0.0794-0.3175v-0.21167l0.5027 0.15875 0.34396 0.34396 0.29104 0.3175 0.26459 0.13229 0.37041-0.15875 0.4498-0.29104 0.42333-0.0794 0.15875 0.42333 0.26458-0.0265 0.58209 0.23813 0.5027 0.3175 0.0529 0.13229 0.15875 0.0529 0.34396 0.15875h0.34396l0.21166-0.0794 0.3175-0.18521 0.29105-0.23812 0.13229-0.15875 0.0794-0.58209 0.26459-0.13229 0.76729 0.23813 0.26458-0.0529 0.26458-0.10583 0.26459-0.0529 0.23812 0.10583 0.635 0.66146 1.3758 0.87313 0.635 0.58208 0.0529 0.47625 0.29104 0.3175 0.58209 0.34396 0.23812 0.29104 0.3175 0.74083 0.21167 0.23813 0.42333 0.37042-0.50271 0.29104-0.5027 0.635-0.1323 0.68791 0.58209 0.50271-0.18521 0.13229-0.10583 0.15875z" name="Northern Samar"/>
  <path d="m57.375 61.373 0.47625 0.82021-0.3175 0.71438-1.2435 1.2965-0.23812 0.635-0.26458 2.0108-0.60854 1.614-0.05292 0.60854-0.60854-0.26458-1.8785-0.50271-1.0848-0.55562-0.42333-0.07938-1.0848 0.34396-1.1906 0.84667-1.9579 1.8785-2.0373 0.66146-2.7252-0.47625-4.9212-1.8521 0.3175-0.92604 1.5346-2.4077 0.26458-0.87312 0.13229-1.8521 0.29104-0.82021 0.55562-0.50271 1.4552-0.66146 0.60854-0.44979 0.37042-0.84667-0.15875-0.76729-0.3175-0.79375v-0.89958l0.13229-0.15875 0.44979-0.23812 0.15875-0.23812 2.5135 0.02646 2.1167-0.55562 3.6248-0.44979 0.52917 0.76729 1.905 2.0638 0.84667 1.1112 0.47625 0.47625 0.58208 0.3175 0.47625 0.18521 0.44979 0.21167 0.44979 0.29104z" name="Kalinga" content="Comprehensive Land Use Plan Local Climate Change Action Plan Rebranding|Upper Chico River Basin Irrigation Water Resources Management System" class="area-hover"/>
  <path d="m98.015 171.99 2.3548-0.76729 1.8521-0.44979 2.0373 1.2171-3.6777 1.4552z" name="Naga"/>
  <path d="m52.639 81.058 3.519 3.3338-0.13229 2.0108-0.92604 0.92604-0.79375-0.52917h-1.4288l0.42333-1.4552-0.74083-1.2171-2.3548 0.82021-0.29104-0.52917-1.2171-1.4817 0.15875-0.47625 0.13229-0.10583 0.21167 0.05292 0.3175-0.02646 0.18521-0.07937 0.05292-0.23812 0.76729-0.18521 0.21167-0.07937 0.18521-0.21167 0.26458-0.55562 0.29104-0.05292 0.79375 0.07937z" name="Santiago"/>
  <path d="m29.62 129.79-1.2171 0.37041-1.0583-0.89958-1.1377-0.29104 1.561-0.89959 1.8521-0.0529z" name="Angeles"/>
  <path d="m29.832 92.408 0.21167 2.249-1.8521-0.15875-0.58208-2.1431z" name="Baguio"/>
  <path d="m24.646 135.51-0.37042 0.79375-0.52917 0.60854-0.66146 0.26459-0.87312 0.0794-0.66146 0.29104-0.58208 0.44979-0.635 0.66146-0.39688-0.10583 0.15875-0.23813 0.10583-0.3175-0.44979-0.0264-0.21167-0.0794-0.10583-0.15875-0.02646-0.3175-0.10583-0.13229-0.18521-0.0265h-0.3175l-0.29104-0.21167-0.26458-0.39687-0.3175-0.18521 1.9315-1.5081 1.905 0.58208z" name="Olongapo"/>
  <path d="m19.248 103.23 0.9525-0.10583 0.39688 0.3175-0.21167 0.76729 0.34396-0.26459 0.29104-0.60854 0.3175-0.29104 0.18521 0.10583 0.3175 0.0529 0.29104-0.0794 0.10583-0.29104-0.15875-0.21166-0.34396 0.10583-0.37042 0.13229-0.23812-0.0265 0.07938-0.37041 0.97896-0.84667 0.84667 1.0583 0.18521 0.84667-1.6933 1.3758-1.2171 0.3175z" name="Dagupan"/>
  <path d="m41.5 144.56v0.29104l0.02646 0.0794-0.10583 0.26458-0.13229 0.18521-0.52917 0.0529-0.21167-0.18521-0.29104-0.15875 0.29104-0.39688 0.21167 0.10584 0.34396-0.0794 0.15875-0.18521z" name="Mandaluyong City"/>
  <path d="m39.568 143.61-0.05292 0.26458 0.84667 0.58209 0.18521 0.23812-0.29104 0.39688-0.55562 0.47625-0.71438 0.0265-0.58208-0.97896-0.23812-0.58209-0.05292-0.42333 0.79375-0.0265 0.39688-0.0529z" name="Manila"/>
  <path d="m37.743 141.75-0.15875 0.13229 0.23812 0.26458 0.21167 0.18521 0.29104 0.52917 0.10583 0.29104h0.15875l0.10583 0.18521 0.21167 0.23812-0.79375 0.0265-0.13229-0.74083-0.18521-0.39688-0.55562-0.74083 0.15875-0.21167z" name="Navotas"/>
  <path d="m39.568 143.61-0.26458-0.0794-0.39688 0.0529-0.21167-0.23812 0.05292-0.13229 0.02646-0.26459 0.23812-0.0529 0.52917-0.0265 0.23812-0.18521-0.10583-0.13229 0.15875-0.23813 0.21167-0.0265 0.15875-0.13229h0.3175l-0.34396 0.34396-0.39688 0.47625-0.21167 0.39688zm3.1485-3.5454-0.10583 0.26459-0.26458 0.0794-0.13229 0.23813-0.23812 0.13229-0.635 0.0265-0.42333 0.0529-0.66146 0.47625-0.02646 0.37042-0.10583-0.0794h-0.13229l-0.15875-0.15875 0.02646-0.29105 0.15875-0.0264 0.02646-0.29105-0.02646-0.15875-0.23812-0.26458 0.60854-0.26458 0.26458-0.42334 0.47625-0.0794 1.3758 0.42333z" name="Caloocan"/>
  <path d="m38.272 141.86 0.26458 0.10583 0.26458 0.52917 0.21167 0.0265 0.37042 0.15875 0.29104-0.13229 0.10583 0.13229-0.23812 0.18521-0.52917 0.0265-0.23812 0.0529-0.02646 0.26459-0.05292 0.13229-0.10583-0.18521h-0.15875l-0.10583-0.29104-0.29104-0.52917-0.21167-0.18521-0.23812-0.26458 0.15875-0.13229 0.55562 0.39687z" name="Malabon"/>
  <path d="m40.23 141.7v0.18521l0.3175 0.0794-0.02646 0.18521h-0.3175l-0.15875 0.13229-0.21167 0.0265-0.15875 0.23813-0.29104 0.13229-0.37042-0.15875-0.21167-0.0265-0.26458-0.52917-0.26458-0.10583-0.58208-0.89958h0.58208l0.37042 0.39687 0.60854-0.23812 0.23812-0.55563 0.29104-0.13229 0.23812 0.26458 0.02646 0.15875-0.02646 0.29105-0.15875 0.0264-0.02646 0.29105 0.15875 0.15875h0.13229z" name="Valenzuela"/>
  <path d="m43.749 139.9-0.29104 0.4498-0.15875 0.10583-0.02646 0.37042 0.26458 0.21166-0.42333 0.82021-0.13229 0.74083-0.34396 0.1323-0.29104 0.39687h-0.21167l0.07937 0.23813-0.26458 0.5027 0.10583 0.26459 0.3175 0.3175-0.13229 0.0529-0.07937 0.3175-0.3175-0.0794-0.34396 0.10583v-0.29104l-0.05292-0.15875h-0.15875l-0.05292-0.0794-0.47625-0.0265-0.26458-0.10584-0.13229 0.26459-0.84667-0.58209 0.05292-0.26458v-0.23812l0.21167-0.39688 0.39688-0.47625 0.34396-0.34396 0.02646-0.18521-0.3175-0.0794v-0.18521l0.02646-0.37042 0.66146-0.47625 0.42333-0.0529 0.635-0.0265 0.23812-0.13229 0.13229-0.23813 0.26458-0.0794 0.10583-0.26459 0.18521-0.0264 0.15875-0.21167z" name="Quezon City" content="Dunamis Power Generators and Industrial Supplies|Royal Asia Inc.|Imperial Nova Corp." class="area-hover"/>
  <path d="m42.77 144.13-0.13229-0.0794-0.44979-0.10583-0.13229 0.18521-0.10583-0.26459 0.26458-0.5027-0.07937-0.23813h0.21167l0.29104-0.39687 0.34396-0.1323 0.66146 0.21167 0.05292 0.26458-0.13229 0.60855-0.44979-0.0794-0.23812 0.18521z" name="Marikina"/>
  <path d="m41.5 144.56-0.23812-0.0265-0.15875 0.18521-0.34396 0.0794-0.21167-0.10584-0.18521-0.23812 0.13229-0.26459 0.26458 0.10584 0.47625 0.0265 0.05292 0.0794h0.15875z" name="San Juan"/>
  <path d="m42.77 144.13 0.21167 0.39687-0.05292 0.55563-0.13229 0.26458 0.13229 0.23813-0.15875 0.23812 0.18521 0.66146-0.42333-0.44979h-0.39688l-0.07937-0.0529-0.02646-0.13229-0.13229-0.0529-0.15875 0.0529-0.02646-0.26458-0.42333-0.21167 0.13229-0.18521 0.10583-0.26458-0.02646-0.0794 0.34396-0.10583 0.3175 0.0794 0.07937-0.3175 0.13229-0.0529-0.3175-0.3175 0.13229-0.18521 0.44979 0.10583z" name="Pasig" content="Prime Hospital and Medical Center Pasig Inc." class="area-hover"/>
  <path d="m41.288 145.38 0.42333 0.21167 0.02646 0.26458-0.10583 0.13229 0.02646 0.23813-0.07937 0.10583h-0.13229l-0.05292-0.34396 0.13229-0.23812-0.21167-0.15875-0.10583 0.10583-0.23812-0.0265-0.02646 0.13229 0.15875 0.15875-0.02646 0.18521-0.39688 0.15875-0.26458 0.13229-0.26458-0.0794-0.10583-0.21167-0.02646-0.26458-0.23812-0.0794-0.07937-0.23812 0.55562-0.47625 0.29104 0.15875 0.21167 0.18521z" name="Makati"/>
  <path d="m40.415 146.44 0.34396 0.55563-0.34396 0.0529-0.29104-0.15875-0.37042 0.0529-0.07937-0.23812 0.02646-0.39688-0.58208-0.0529-0.13229-0.66145 0.71438-0.0265 0.07937 0.23812 0.23812 0.0794 0.02646 0.26458 0.10583 0.21167z" name="Pasay"/>
  <path d="m40.759 146.99 0.34396 0.15875-0.02646 1.0319v0.44979l-0.635 0.3175-0.21167-0.13229-0.10583-0.23812-0.29104-0.21167-0.05292-0.34396-0.29104-0.21166-0.02646-0.18521-0.26458-0.13229-0.39688-0.4498 0.21167-0.26458 0.10583-0.52917 0.58208 0.0529-0.02646 0.39688 0.07937 0.23812 0.37042-0.0529 0.29104 0.15875z" name="Paranaque"/>
  <path d="m40.441 148.95-0.02646 0.3175-0.29104 0.34396-0.05292 0.37042-0.13229 0.13229-0.05292-0.13229-0.66146-1.1112-0.34396-0.23813-0.07937-0.79375-0.34396-0.5027 0.26458-0.18521 0.07937-0.10584 0.39688 0.4498 0.26458 0.13229 0.02646 0.18521 0.29104 0.21166 0.05292 0.34396 0.29104 0.21167 0.10583 0.23812z" name="Las Pinas"/>
  <path d="m43.22 148.5 0.23812 1.8521-2.0902 0.10583-0.15875 0.15875-0.23812-0.0265-0.37042 0.21167-0.29104 0.26458-0.37042 0.10583 0.07937-0.79375-0.07937-0.26458 0.13229-0.13229 0.05292-0.37042 0.29104-0.34396 0.02646-0.3175 0.635-0.3175v-0.44979l0.21167-0.15875 0.23812 0.0265z" name="Muntinlupa"/>
  <path d="m41.658 146.22 0.18521-0.0265 0.07937-0.15875 0.13229-0.0529 0.07937 0.0529h0.39688l0.42333 0.44979 0.26458 2.0108-1.6933-0.44979-0.23812-0.0265-0.21167 0.15875 0.02646-1.0319-0.34396-0.15875-0.34396-0.55563 0.26458-0.13229 0.39688-0.15875 0.02646-0.18521-0.15875-0.15875 0.02646-0.13229 0.23812 0.0265 0.10583-0.10583 0.21167 0.15875-0.13229 0.23812 0.05292 0.34396h0.13229z" name="Taguig"/>
  <path d="m42.055 145.99-0.13229 0.0529-0.07937 0.15875-0.18521 0.0265-0.02646-0.23813 0.10583-0.13229 0.15875-0.0529 0.13229 0.0529z" name="Pateros"/>
  <path d="m56.951 163.85-0.42333 0.44979-0.23812 0.0265-0.47625-0.1323-0.13229 0.0265-0.34396 0.23813-0.79375 0.26458-1.3758-2.2225 2.2754-1.0848z" name="Lucena"/>
 </g>
</svg>
